<?xml version="1.0" encoding="UTF-8" standalone="no"?>
<!-- Generator: Adobe Illustrator 19.1.1, SVG Export Plug-In . SVG Version: 6.00 Build 0)  -->

<svg
   xmlns:dc="http://purl.org/dc/elements/1.1/"
   xmlns:cc="http://creativecommons.org/ns#"
   xmlns:rdf="http://www.w3.org/1999/02/22-rdf-syntax-ns#"
   xmlns:svg="http://www.w3.org/2000/svg"
   xmlns="http://www.w3.org/2000/svg"
   xmlns:sodipodi="http://sodipodi.sourceforge.net/DTD/sodipodi-0.dtd"
   xmlns:inkscape="http://www.inkscape.org/namespaces/inkscape"
   version="1.1"
   id="Calque_1"
   x="0px"
   y="0px"
   viewBox="80 361 99.400003 99.400001"
   xml:space="preserve"
   inkscape:version="0.91 r13725"
   sodipodi:docname="ico-journaliste.svg"
   width="99.400002"
   height="99.400002"><metadata
     id="metadata4999"><rdf:RDF><cc:Work
         rdf:about=""><dc:format>image/svg+xml</dc:format><dc:type
           rdf:resource="http://purl.org/dc/dcmitype/StillImage" /><dc:title></dc:title></cc:Work></rdf:RDF></metadata><defs
     id="defs4997" /><sodipodi:namedview
     pagecolor="#ffffff"
     bordercolor="#666666"
     borderopacity="1"
     objecttolerance="10"
     gridtolerance="10"
     guidetolerance="10"
     inkscape:pageopacity="0"
     inkscape:pageshadow="2"
     inkscape:window-width="1920"
     inkscape:window-height="1080"
     id="namedview4995"
     showgrid="false"
     fit-margin-top="0"
     fit-margin-left="0"
     fit-margin-right="0"
     fit-margin-bottom="0"
     inkscape:zoom="1.1575153"
     inkscape:cx="218.35212"
     inkscape:cy="65.903338"
     inkscape:window-x="0"
     inkscape:window-y="0"
     inkscape:window-maximized="0"
     inkscape:current-layer="Calque_1" /><style
     type="text/css"
     id="style4515">
	.st0{fill:#F2F2F2;}
	.st1{font-family:'Nauman-Regular';}
	.st2{font-size:16.0588px;}
	.st3{fill:#688387;}
	.st4{fill:#EF7378;}
	.st5{fill:#C1272D;}
	.st6{font-family:'GeosansLight';}
	.st7{font-size:9.6353px;}
	.st8{fill:none;stroke:#C1272D;stroke-width:6;stroke-miterlimit:10;}
	.st9{fill:none;stroke:#C1272D;stroke-width:4;stroke-miterlimit:10;}
	.st10{fill:none;stroke:#C1272D;stroke-width:7;stroke-miterlimit:10;}
	.st11{fill:#FFFFFF;stroke:#C1272D;stroke-width:5;stroke-miterlimit:10;}
	.st12{fill:none;stroke:#C1272D;stroke-width:3;stroke-miterlimit:10;}
	.st13{fill:#FFFFFF;stroke:#C1272D;stroke-miterlimit:10;}
	.st14{fill:none;stroke:#C1272D;stroke-width:5;stroke-miterlimit:10;}
	.st15{fill:none;stroke:#C1272D;stroke-width:2;stroke-miterlimit:10;}
	.st16{fill:#C1272D;stroke:#C1272D;stroke-miterlimit:10;}
	.st17{font-size:30px;}
	.st18{enable-background:new    ;}
	.st19{font-family:'GeosansLight-Oblique';}
	.st20{font-size:24px;}
	.st21{fill:#030303;}
	.st22{fill:#F70505;}
	.st23{fill:#FDFDFD;}
	.st24{fill:#6E696B;}
	.st25{fill:#B7322B;}
	.st26{fill:#BD443E;}
	.st27{fill:#858082;}
	.st28{fill:#FBF8F7;}
	.st29{fill:none;stroke:#C24F54;stroke-miterlimit:10;}
	.st30{fill:none;stroke:#688387;stroke-miterlimit:10;}
	.st31{fill:none;stroke:#688387;stroke-width:1.0586;stroke-miterlimit:10;}
	.st32{fill:none;stroke:#ED6167;stroke-miterlimit:10;}
	.st33{fill:#FFFFFF;}
	.st34{fill:#F2F2F2;stroke:#C24F54;stroke-miterlimit:10;}
	.st35{font-size:16px;}
</style><path
     class="st10"
     d="M 148.3,424.7"
     id="path4625"
     inkscape:connector-curvature="0"
     style="fill:none;stroke:#c1272d;stroke-width:7;stroke-miterlimit:10" /><g
     id="g4627"
     transform="translate(-328.1,-406.2)"><path
       class="st12"
       d="m 477.3,797.7 c 1.9,0.1 9.2,0.2 11.2,0.3 l 0,36.3 c 0,3.6 -0.2,5.6 -1.7,7.6 -2.2,2.3 -4.4,2.3 -8.6,2.3 -4,0 -28.5,-0.2 -39,-0.4 -0.9,0 -3.7,-0.1 -5.8,-1.6 -3.5,-2.5 -4,-5.7 -4,-7.3 l 0,0.1 c 0,0 0,1.6 0,-43.4 l 47.3,0 c -0.2,45 0,46.5 0,46.5 0.4,4.5 4.2,6.5 6.8,5.6"
       id="path4629"
       inkscape:connector-curvature="0"
       style="fill:none;stroke:#c1272d;stroke-width:3;stroke-miterlimit:10" /><g
       id="g4631"><rect
         x="435.70001"
         y="797.29999"
         class="st13"
         width="26.9"
         height="11.5"
         id="rect4633"
         style="fill:#ffffff;stroke:#c1272d;stroke-miterlimit:10" /><rect
         x="435.89999"
         y="812.90002"
         class="st13"
         width="11.5"
         height="25.200001"
         id="rect4635"
         style="fill:#ffffff;stroke:#c1272d;stroke-miterlimit:10" /><rect
         x="465.20001"
         y="827.29999"
         class="st13"
         width="7.5999999"
         height="10.8"
         id="rect4637"
         style="fill:#ffffff;stroke:#c1272d;stroke-miterlimit:10" /><g
         id="g4639"><g
           id="g4641"><path
             class="st5"
             d="m 465.6,798.9 c 2.4,0 4.8,0 7.2,0 0.6,0 0.6,-1 0,-1 -2.4,0 -4.8,0 -7.2,0 -0.6,0 -0.6,1 0,1 l 0,0 z"
             id="path4643"
             inkscape:connector-curvature="0"
             style="fill:#c1272d" /></g></g><g
         id="g4645"><g
           id="g4647"><path
             class="st5"
             d="m 465.6,801.3 c 2.4,0 4.8,0 7.2,0 0.6,0 0.6,-1 0,-1 -2.4,0 -4.8,0 -7.2,0 -0.6,0 -0.6,1 0,1 l 0,0 z"
             id="path4649"
             inkscape:connector-curvature="0"
             style="fill:#c1272d" /></g></g><g
         id="g4651"><g
           id="g4653"><path
             class="st5"
             d="m 465.6,803.7 c 2.4,0 4.8,0 7.2,0 0.6,0 0.6,-1 0,-1 -2.4,0 -4.8,0 -7.2,0 -0.6,0 -0.6,1 0,1 l 0,0 z"
             id="path4655"
             inkscape:connector-curvature="0"
             style="fill:#c1272d" /></g></g><g
         id="g4657"><g
           id="g4659"><path
             class="st5"
             d="m 465.6,806.1 c 2.4,0 4.8,0 7.2,0 0.6,0 0.6,-1 0,-1 -2.4,0 -4.8,0 -7.2,0 -0.6,0 -0.6,1 0,1 l 0,0 z"
             id="path4661"
             inkscape:connector-curvature="0"
             style="fill:#c1272d" /></g></g><g
         id="g4663"><g
           id="g4665"><path
             class="st5"
             d="m 465.6,808.5 c 2.4,0 4.8,0 7.2,0 0.6,0 0.6,-1 0,-1 -2.4,0 -4.8,0 -7.2,0 -0.6,0 -0.6,1 0,1 l 0,0 z"
             id="path4667"
             inkscape:connector-curvature="0"
             style="fill:#c1272d" /></g></g><g
         id="g4669"><g
           id="g4671"><path
             class="st5"
             d="m 450.3,814.1 c 7.2,0 14.5,0 21.7,0 0.6,0 0.6,-1 0,-1 -7.2,0 -14.5,0 -21.7,0 -0.6,0 -0.6,1 0,1 l 0,0 z"
             id="path4673"
             inkscape:connector-curvature="0"
             style="fill:#c1272d" /></g></g><g
         id="g4675"><g
           id="g4677"><path
             class="st5"
             d="m 450.3,816.5 c 7.2,0 14.5,0 21.7,0 0.6,0 0.6,-1 0,-1 -7.2,0 -14.5,0 -21.7,0 -0.6,0 -0.6,1 0,1 l 0,0 z"
             id="path4679"
             inkscape:connector-curvature="0"
             style="fill:#c1272d" /></g></g><g
         id="g4681"><g
           id="g4683"><path
             class="st5"
             d="m 450.3,819 c 7.2,0 14.5,0 21.7,0 0.6,0 0.6,-1 0,-1 -7.2,0 -14.5,0 -21.7,0 -0.6,0 -0.6,1 0,1 l 0,0 z"
             id="path4685"
             inkscape:connector-curvature="0"
             style="fill:#c1272d" /></g></g><g
         id="g4687"><g
           id="g4689"><path
             class="st5"
             d="m 450.3,821.4 c 7.2,0 14.5,0 21.7,0 0.6,0 0.6,-1 0,-1 -7.2,0 -14.5,0 -21.7,0 -0.6,0 -0.6,1 0,1 l 0,0 z"
             id="path4691"
             inkscape:connector-curvature="0"
             style="fill:#c1272d" /></g></g><g
         id="g4693"><g
           id="g4695"><path
             class="st5"
             d="m 450.3,823.8 c 7.2,0 14.5,0 21.7,0 0.6,0 0.6,-1 0,-1 -7.2,0 -14.5,0 -21.7,0 -0.6,0 -0.6,1 0,1 l 0,0 z"
             id="path4697"
             inkscape:connector-curvature="0"
             style="fill:#c1272d" /></g></g><g
         id="g4699"><g
           id="g4701"><path
             class="st5"
             d="m 450.3,826.2 c 7.2,0 14.5,0 21.7,0 0.6,0 0.6,-1 0,-1 -7.2,0 -14.5,0 -21.7,0 -0.6,0 -0.6,1 0,1 l 0,0 z"
             id="path4703"
             inkscape:connector-curvature="0"
             style="fill:#c1272d" /></g></g><g
         id="g4705"><g
           id="g4707"><path
             class="st5"
             d="m 450.3,828.6 c 4.6,0 9.1,0 13.7,0 0.6,0 0.6,-1 0,-1 -4.5,0 -9.1,0 -13.7,0 -0.6,0 -0.6,1 0,1 l 0,0 z"
             id="path4709"
             inkscape:connector-curvature="0"
             style="fill:#c1272d" /></g></g><g
         id="g4711"><g
           id="g4713"><path
             class="st5"
             d="m 450.3,831 c 4.6,0 9.1,0 13.7,0 0.6,0 0.6,-1 0,-1 -4.5,0 -9.1,0 -13.7,0 -0.6,0 -0.6,1 0,1 l 0,0 z"
             id="path4715"
             inkscape:connector-curvature="0"
             style="fill:#c1272d" /></g></g><g
         id="g4717"><g
           id="g4719"><path
             class="st5"
             d="m 450.3,833.4 c 4.6,0 9.1,0 13.7,0 0.6,0 0.6,-1 0,-1 -4.5,0 -9.1,0 -13.7,0 -0.6,0 -0.6,1 0,1 l 0,0 z"
             id="path4721"
             inkscape:connector-curvature="0"
             style="fill:#c1272d" /></g></g><g
         id="g4723"><g
           id="g4725"><path
             class="st5"
             d="m 450.3,835.8 c 4.6,0 9.1,0 13.7,0 0.6,0 0.6,-1 0,-1 -4.5,0 -9.1,0 -13.7,0 -0.6,0 -0.6,1 0,1 l 0,0 z"
             id="path4727"
             inkscape:connector-curvature="0"
             style="fill:#c1272d" /></g></g><g
         id="g4729"><g
           id="g4731"><path
             class="st5"
             d="m 450.3,838.2 c 4.6,0 9.1,0 13.7,0 0.6,0 0.6,-1 0,-1 -4.5,0 -9.1,0 -13.7,0 -0.6,0 -0.6,1 0,1 l 0,0 z"
             id="path4733"
             inkscape:connector-curvature="0"
             style="fill:#c1272d" /></g></g></g></g><g
     id="g4885"
     transform="translate(-328.1,-406.2)"><g
       id="g4887"><g
         id="g4889" /></g></g><path
     class="st10"
     d="m 175.9,410.7 c 0,25.5 -20.7,46.2 -46.2,46.2 -25.5,0 -46.2,-20.7 -46.2,-46.2 0,-25.5 20.7,-46.2 46.2,-46.2 17.6,0 30,10.9 31.9,12.8 1.6,1.6 14.3,14.5 14.3,33.4 z"
     id="path4901"
     inkscape:connector-curvature="0"
     style="fill:none;stroke:#c1272d;stroke-width:7;stroke-miterlimit:10" /></svg>