<?xml version="1.0" encoding="UTF-8" standalone="no"?>
<!-- Generator: Adobe Illustrator 19.1.1, SVG Export Plug-In . SVG Version: 6.00 Build 0)  -->

<svg
   xmlns:dc="http://purl.org/dc/elements/1.1/"
   xmlns:cc="http://creativecommons.org/ns#"
   xmlns:rdf="http://www.w3.org/1999/02/22-rdf-syntax-ns#"
   xmlns:svg="http://www.w3.org/2000/svg"
   xmlns="http://www.w3.org/2000/svg"
   xmlns:sodipodi="http://sodipodi.sourceforge.net/DTD/sodipodi-0.dtd"
   xmlns:inkscape="http://www.inkscape.org/namespaces/inkscape"
   version="1.1"
   id="Calque_1"
   x="0px"
   y="0px"
   viewBox="80 361 99.400003 99.400001"
   xml:space="preserve"
   inkscape:version="0.91 r13725"
   sodipodi:docname="ico-moderateur.svg"
   width="99.400002"
   height="99.400002"><metadata
     id="metadata4999"><rdf:RDF><cc:Work
         rdf:about=""><dc:format>image/svg+xml</dc:format><dc:type
           rdf:resource="http://purl.org/dc/dcmitype/StillImage" /><dc:title></dc:title></cc:Work></rdf:RDF></metadata><defs
     id="defs4997" /><sodipodi:namedview
     pagecolor="#ffffff"
     bordercolor="#666666"
     borderopacity="1"
     objecttolerance="10"
     gridtolerance="10"
     guidetolerance="10"
     inkscape:pageopacity="0"
     inkscape:pageshadow="2"
     inkscape:window-width="1920"
     inkscape:window-height="1080"
     id="namedview4995"
     showgrid="false"
     fit-margin-top="0"
     fit-margin-left="0"
     fit-margin-right="0"
     fit-margin-bottom="0"
     inkscape:zoom="1.1575153"
     inkscape:cx="-34.647886"
     inkscape:cy="-89.196649"
     inkscape:window-x="0"
     inkscape:window-y="0"
     inkscape:window-maximized="0"
     inkscape:current-layer="Calque_1" /><style
     type="text/css"
     id="style4515">
	.st0{fill:#F2F2F2;}
	.st1{font-family:'Nauman-Regular';}
	.st2{font-size:16.0588px;}
	.st3{fill:#688387;}
	.st4{fill:#EF7378;}
	.st5{fill:#C1272D;}
	.st6{font-family:'GeosansLight';}
	.st7{font-size:9.6353px;}
	.st8{fill:none;stroke:#C1272D;stroke-width:6;stroke-miterlimit:10;}
	.st9{fill:none;stroke:#C1272D;stroke-width:4;stroke-miterlimit:10;}
	.st10{fill:none;stroke:#C1272D;stroke-width:7;stroke-miterlimit:10;}
	.st11{fill:#FFFFFF;stroke:#C1272D;stroke-width:5;stroke-miterlimit:10;}
	.st12{fill:none;stroke:#C1272D;stroke-width:3;stroke-miterlimit:10;}
	.st13{fill:#FFFFFF;stroke:#C1272D;stroke-miterlimit:10;}
	.st14{fill:none;stroke:#C1272D;stroke-width:5;stroke-miterlimit:10;}
	.st15{fill:none;stroke:#C1272D;stroke-width:2;stroke-miterlimit:10;}
	.st16{fill:#C1272D;stroke:#C1272D;stroke-miterlimit:10;}
	.st17{font-size:30px;}
	.st18{enable-background:new    ;}
	.st19{font-family:'GeosansLight-Oblique';}
	.st20{font-size:24px;}
	.st21{fill:#030303;}
	.st22{fill:#F70505;}
	.st23{fill:#FDFDFD;}
	.st24{fill:#6E696B;}
	.st25{fill:#B7322B;}
	.st26{fill:#BD443E;}
	.st27{fill:#858082;}
	.st28{fill:#FBF8F7;}
	.st29{fill:none;stroke:#C24F54;stroke-miterlimit:10;}
	.st30{fill:none;stroke:#688387;stroke-miterlimit:10;}
	.st31{fill:none;stroke:#688387;stroke-width:1.0586;stroke-miterlimit:10;}
	.st32{fill:none;stroke:#ED6167;stroke-miterlimit:10;}
	.st33{fill:#FFFFFF;}
	.st34{fill:#F2F2F2;stroke:#C24F54;stroke-miterlimit:10;}
	.st35{font-size:16px;}
</style><g
     id="g4747"
     transform="translate(-581.10001,-251.10001)"><g
       id="g4749"><path
         class="st14"
         d="m 710.8,634.6 c 2.7,3 6.7,4.9 12.2,6.6 7,2.2 15.3,2.2 15.3,2.2 0,0 1.2,16.9 -11.9,35.4 -6.8,9.6 -10.7,11.2 -16,16 l 0,0 c -5.3,-4.8 -8.3,-6.4 -15.1,-16 -13,-18.5 -11.9,-35.3 -11.9,-35.3 0,0 8.3,-0.1 15.3,-2.3 5.6,-1.7 9.5,-3.7 12.1,-6.6 l 0,0 z"
         id="path4751"
         inkscape:connector-curvature="0"
         style="fill:none;stroke:#c1272d;stroke-width:5;stroke-miterlimit:10" /><g
         id="g4753"><g
           id="g4755"><g
             id="g4757"><path
               class="st5"
               d="m 692.3,650.3 c 1.6,1.8 3.2,3.6 4.7,5.4 1.3,1.5 3.4,-0.7 2.1,-2.1 -1.6,-1.8 -3.2,-3.6 -4.7,-5.4 -1.2,-1.5 -3.4,0.6 -2.1,2.1 l 0,0 z"
               id="path4759"
               inkscape:connector-curvature="0"
               style="fill:#c1272d" /></g></g><g
           id="g4761"><g
             id="g4763"><path
               class="st5"
               d="m 701.1,644.9 c 1,1.8 2,3.7 3,5.5 0.9,1.7 3.5,0.2 2.6,-1.5 -1,-1.8 -2,-3.7 -3,-5.5 -0.9,-1.7 -3.5,-0.2 -2.6,1.5 l 0,0 z"
               id="path4765"
               inkscape:connector-curvature="0"
               style="fill:#c1272d" /></g></g><g
           id="g4767"><g
             id="g4769"><path
               class="st5"
               d="m 727.6,648.1 c -1.6,1.8 -3.2,3.6 -4.7,5.4 -1.3,1.4 0.8,3.6 2.1,2.1 1.6,-1.8 3.2,-3.6 4.7,-5.4 1.3,-1.4 -0.8,-3.5 -2.1,-2.1 l 0,0 z"
               id="path4771"
               inkscape:connector-curvature="0"
               style="fill:#c1272d" /></g></g><g
           id="g4773"><g
             id="g4775"><path
               class="st5"
               d="m 718.4,643.4 c -1,1.8 -2,3.7 -3,5.5 -0.9,1.7 1.7,3.2 2.6,1.5 1,-1.8 2,-3.7 3,-5.5 0.9,-1.7 -1.7,-3.2 -2.6,-1.5 l 0,0 z"
               id="path4777"
               inkscape:connector-curvature="0"
               style="fill:#c1272d" /></g></g><g
           id="g4779"><path
             class="st15"
             d="m 722.5,660.4 c 0,-4.9 -5,-8.9 -11.2,-8.9 -6.2,0 -11.2,3.9 -11.2,8.8 l -0.1,10.8 22.6,0 -0.1,-10.7 z"
             id="path4781"
             inkscape:connector-curvature="0"
             style="fill:none;stroke:#c1272d;stroke-width:2;stroke-miterlimit:10" /><g
             id="g4783"><path
               class="st16"
               d="m 706,658.5 c 0,-3 3.4,-6.5 7.7,-6.5 4.2,0 7.7,3.5 7.7,6.5 l -15.4,0 z"
               id="path4785"
               inkscape:connector-curvature="0"
               style="fill:#c1272d;stroke:#c1272d;stroke-miterlimit:10" /><rect
               x="706"
               y="658.20001"
               class="st16"
               width="16"
               height="12.6"
               id="rect4787"
               style="fill:#c1272d;stroke:#c1272d;stroke-miterlimit:10" /></g></g></g></g><line
       class="st15"
       x1="699"
       y1="674"
       x2="723"
       y2="674"
       id="line4789"
       style="fill:none;stroke:#c1272d;stroke-width:2;stroke-miterlimit:10" /></g><circle
     class="st10"
     cx="129.7"
     cy="410.70001"
     r="46.200001"
     id="circle4883"
     style="fill:none;stroke:#c1272d;stroke-width:7;stroke-miterlimit:10" /></svg>