<?xml version="1.0" encoding="UTF-8" standalone="no"?>
<!-- Generator: Adobe Illustrator 19.1.1, SVG Export Plug-In . SVG Version: 6.00 Build 0)  -->

<svg
   xmlns:dc="http://purl.org/dc/elements/1.1/"
   xmlns:cc="http://creativecommons.org/ns#"
   xmlns:rdf="http://www.w3.org/1999/02/22-rdf-syntax-ns#"
   xmlns:svg="http://www.w3.org/2000/svg"
   xmlns="http://www.w3.org/2000/svg"
   xmlns:sodipodi="http://sodipodi.sourceforge.net/DTD/sodipodi-0.dtd"
   xmlns:inkscape="http://www.inkscape.org/namespaces/inkscape"
   version="1.1"
   id="Calque_1"
   x="0px"
   y="0px"
   viewBox="80 361 99.400003 99.400001"
   xml:space="preserve"
   inkscape:version="0.91 r13725"
   sodipodi:docname="ico-Commentateur.svg"
   width="99.400002"
   height="99.400002"><metadata
     id="metadata4999"><rdf:RDF><cc:Work
         rdf:about=""><dc:format>image/svg+xml</dc:format><dc:type
           rdf:resource="http://purl.org/dc/dcmitype/StillImage" /><dc:title></dc:title></cc:Work></rdf:RDF></metadata><defs
     id="defs4997" /><sodipodi:namedview
     pagecolor="#ffffff"
     bordercolor="#666666"
     borderopacity="0.6627451"
     objecttolerance="10"
     gridtolerance="10"
     guidetolerance="10"
     inkscape:pageopacity="0"
     inkscape:pageshadow="2"
     inkscape:window-width="956"
     inkscape:window-height="1041"
     id="namedview4995"
     showgrid="false"
     fit-margin-top="0"
     fit-margin-left="0"
     fit-margin-right="0"
     fit-margin-bottom="0"
     inkscape:zoom="0.81848692"
     inkscape:cx="115.94177"
     inkscape:cy="297.03623"
     inkscape:window-x="960"
     inkscape:window-y="18"
     inkscape:window-maximized="0"
     inkscape:current-layer="Calque_1"
     borderlayer="true"
     showborder="true" /><style
     type="text/css"
     id="style4515">
	.st0{fill:#F2F2F2;}
	.st1{font-family:'Nauman-Regular';}
	.st2{font-size:16.0588px;}
	.st3{fill:#688387;}
	.st4{fill:#EF7378;}
	.st5{fill:#C1272D;}
	.st6{font-family:'GeosansLight';}
	.st7{font-size:9.6353px;}
	.st8{fill:none;stroke:#C1272D;stroke-width:6;stroke-miterlimit:10;}
	.st9{fill:none;stroke:#C1272D;stroke-width:4;stroke-miterlimit:10;}
	.st10{fill:none;stroke:#C1272D;stroke-width:7;stroke-miterlimit:10;}
	.st11{fill:#FFFFFF;stroke:#C1272D;stroke-width:5;stroke-miterlimit:10;}
	.st12{fill:none;stroke:#C1272D;stroke-width:3;stroke-miterlimit:10;}
	.st13{fill:#FFFFFF;stroke:#C1272D;stroke-miterlimit:10;}
	.st14{fill:none;stroke:#C1272D;stroke-width:5;stroke-miterlimit:10;}
	.st15{fill:none;stroke:#C1272D;stroke-width:2;stroke-miterlimit:10;}
	.st16{fill:#C1272D;stroke:#C1272D;stroke-miterlimit:10;}
	.st17{font-size:30px;}
	.st18{enable-background:new    ;}
	.st19{font-family:'GeosansLight-Oblique';}
	.st20{font-size:24px;}
	.st21{fill:#030303;}
	.st22{fill:#F70505;}
	.st23{fill:#FDFDFD;}
	.st24{fill:#6E696B;}
	.st25{fill:#B7322B;}
	.st26{fill:#BD443E;}
	.st27{fill:#858082;}
	.st28{fill:#FBF8F7;}
	.st29{fill:none;stroke:#C24F54;stroke-miterlimit:10;}
	.st30{fill:none;stroke:#688387;stroke-miterlimit:10;}
	.st31{fill:none;stroke:#688387;stroke-width:1.0586;stroke-miterlimit:10;}
	.st32{fill:none;stroke:#ED6167;stroke-miterlimit:10;}
	.st33{fill:#FFFFFF;}
	.st34{fill:#F2F2F2;stroke:#C24F54;stroke-miterlimit:10;}
	.st35{font-size:16px;}
</style><g
     id="g4545"
     transform="translate(-420.29999,-155.1)"><path
       class="st5"
       d="m 576.7,592.9 c 0,-6.7 -0.1,-13 0.1,-19.2 0.1,-1.9 0.8,-4 1.8,-5.7 1.6,-2.8 1.6,-5.2 -0.2,-7.8 -0.9,-1.4 -1.6,-3.3 -1.7,-5 -0.2,-6.5 -0.1,-13 -0.1,-19.7 -2.3,0 -4.3,0 -6.2,0 -1.6,6.6 -6.1,10.9 -11.6,13.7 -5.4,2.7 -11.3,4.4 -17.3,6.6 0,5.4 0,11.6 0,17.6 13,1.9 24,6.2 29.2,19.5 1.9,0 3.7,0 6,0 z m -32.3,-0.3 c -5.7,-12.3 -7.3,-24.9 -6,-38.1 -4.1,0 -7.6,0.2 -11,-0.1 -5.7,-0.5 -8.3,3.6 -11,7.3 -0.8,1.1 -0.8,3.8 0,4.8 2,2.6 4.3,5.3 7.1,6.7 2.1,1.1 2.9,2.2 3.5,4.1 1.9,6.2 3.9,12.4 5.9,18.8 3.8,-1.2 7.3,-2.2 11.5,-3.5 z"
       id="path4547"
       inkscape:connector-curvature="0"
       style="fill:#c1272d" /><path
       class="st5"
       d="m 576.7,592.9 c -2.3,0 -4.2,0 -5.9,0 -5.2,-13.3 -16.3,-17.6 -29.2,-19.5 0,-6 0,-12.3 0,-17.6 6,-2.3 11.9,-3.9 17.3,-6.6 5.5,-2.8 10,-7.2 11.6,-13.7 2,0 3.9,0 6.2,0 0,6.7 -0.1,13.2 0.1,19.7 0,1.7 0.8,3.5 1.7,5 1.7,2.7 1.8,5.1 0.2,7.8 -1,1.7 -1.8,3.8 -1.8,5.7 -0.3,6.2 -0.2,12.5 -0.2,19.2 z"
       id="path4549"
       inkscape:connector-curvature="0"
       style="fill:#c1272d" /><path
       class="st5"
       d="m 544.4,592.6 c -4.3,1.3 -7.7,2.4 -11.5,3.5 -2,-6.4 -4,-12.5 -5.9,-18.8 -0.6,-2 -1.4,-2.3 -3.5,-3.3 -2.8,-1.4 -6.6,-4.6 -7.9,-7.5 -0.6,-1.2 -0.6,-5.2 0,-6.4 1.8,-4.2 6.1,-6.2 11.8,-5.7 3.4,0.3 6.9,0.1 11,0.1 -1.3,13.2 0.3,25.8 6,38.1 z"
       id="path4551"
       inkscape:connector-curvature="0"
       style="fill:#c1272d" /></g><circle
     class="st10"
     cx="129.7"
     cy="410.70001"
     r="46.200001"
     id="circle4881"
     style="fill:none;stroke:#c1272d;stroke-width:7;stroke-miterlimit:10" /></svg>