<?xml version="1.0" encoding="UTF-8" standalone="no"?>
<!-- Generator: Adobe Illustrator 19.1.1, SVG Export Plug-In . SVG Version: 6.00 Build 0)  -->

<svg
   xmlns:dc="http://purl.org/dc/elements/1.1/"
   xmlns:cc="http://creativecommons.org/ns#"
   xmlns:rdf="http://www.w3.org/1999/02/22-rdf-syntax-ns#"
   xmlns:svg="http://www.w3.org/2000/svg"
   xmlns="http://www.w3.org/2000/svg"
   xmlns:sodipodi="http://sodipodi.sourceforge.net/DTD/sodipodi-0.dtd"
   xmlns:inkscape="http://www.inkscape.org/namespaces/inkscape"
   version="1.1"
   id="Calque_1"
   x="0px"
   y="0px"
   viewBox="0 0 817.26245 384.33844"
   xml:space="preserve"
   inkscape:version="0.91 r13725"
   sodipodi:docname="premiere-période.svg"
   width="817.26245"
   height="384.33844"><metadata
     id="metadata3990"><rdf:RDF><cc:Work
         rdf:about=""><dc:format>image/svg+xml</dc:format><dc:type
           rdf:resource="http://purl.org/dc/dcmitype/StillImage" /><dc:title></dc:title></cc:Work></rdf:RDF></metadata><defs
     id="defs3988" /><sodipodi:namedview
     pagecolor="#ffffff"
     bordercolor="#666666"
     borderopacity="1"
     objecttolerance="10"
     gridtolerance="10"
     guidetolerance="10"
     inkscape:pageopacity="0"
     inkscape:pageshadow="2"
     inkscape:window-width="1920"
     inkscape:window-height="1080"
     id="namedview3986"
     showgrid="false"
     fit-margin-top="0"
     fit-margin-left="0"
     fit-margin-right="0"
     fit-margin-bottom="0"
     inkscape:zoom="1.21"
     inkscape:cx="199.85935"
     inkscape:cy="209.60564"
     inkscape:window-x="0"
     inkscape:window-y="0"
     inkscape:window-maximized="0"
     inkscape:current-layer="Calque_1" /><style
     type="text/css"
     id="style3692">
	.st0{fill:#F2F2F2;}
	.st1{font-family:'Nauman-Regular';}
	.st2{font-size:16.0588px;}
	.st3{fill:#999999;}
	.st4{fill:#EF7378;}
	.st5{fill:#C1272D;}
	.st6{font-family:'GeosansLight';}
	.st7{font-size:9.6353px;}
	.st8{fill:none;stroke:#C1272D;stroke-width:6;stroke-miterlimit:10;}
	.st9{fill:none;stroke:#C1272D;stroke-width:4;stroke-miterlimit:10;}
	.st10{fill:none;stroke:#C1272D;stroke-width:7;stroke-miterlimit:10;}
	.st11{fill:none;stroke:#C1272D;stroke-width:3;stroke-miterlimit:10;}
	.st12{fill:#FFFFFF;stroke:#C1272D;stroke-miterlimit:10;}
	.st13{fill:#CCCCCC;}
	.st14{font-size:30px;}
	.st15{font-family:'GeosansLight-Oblique';}
	.st16{font-size:24px;}
	.st17{letter-spacing:-1;}
	.st18{fill:none;stroke:#CCCCCC;stroke-width:7;stroke-miterlimit:10;}
	.st19{fill:#FFFFFF;stroke:#CCCCCC;stroke-width:5;stroke-miterlimit:10;}
	.st20{fill:none;stroke:#CCCCCC;stroke-width:3;stroke-miterlimit:10;}
	.st21{fill:none;stroke:#C24F54;stroke-miterlimit:10;}
	.st22{fill:none;stroke:#ED6167;stroke-miterlimit:10;}
	.st23{fill:#999999;stroke:#CCCCCC;stroke-miterlimit:10;}
	.st24{fill:#F18387;}
</style><text
     class="st1 st2"
     id="text3696"
     x="84.896828"
     y="176.15944"
     style="font-size:16.05879974px;font-family:Nauman-Regular">Lecteur</text>
<text
     class="st1 st2"
     id="text3698"
     x="307.92371"
     y="11.91864"
     style="font-size:16.05879974px;font-family:Nauman-Regular">Commentateur</text>
<text
     class="st3 st1 st2"
     id="text3700"
     x="517.92761"
     y="345.85123"
     style="font-size:16.05879974px;font-family:Nauman-Regular;fill:#999999">Aspect juridique</text>
<text
     class="st3 st1 st2"
     id="text3702"
     x="585.11121"
     y="176.36444"
     style="font-size:16.05879974px;font-family:Nauman-Regular;fill:#999999">Modérateur</text>
<text
     class="st1 st2"
     id="text3704"
     x="42.438427"
     y="333.85184"
     style="font-size:16.05879974px;font-family:Nauman-Regular">Sites web participatifs</text>
<g
     id="g3706"
     transform="translate(-101.22767,-121.26156)"><g
       id="g3708"><g
         id="g3710"><path
           class="st4"
           d="m 423.8,221.8 c 0,0 -2,-0.7 -5.1,-1.5 -3.1,-0.8 -7.3,-1.8 -11.7,-2.4 -4.4,-0.6 -8.9,-0.9 -12.4,-1 -3.5,-0.1 -5.8,0.1 -5.8,0.1 0,0 1.1,0.3 2.7,0.7 1.6,0.5 3.7,1.1 5.7,1.8 1,0.4 2,0.7 3,1.1 0.9,0.4 1.8,0.7 2.5,1 1.5,0.6 2.4,1 2.4,1 0,0 -0.3,0.1 -0.9,0.3 -0.6,0.2 -1.4,0.5 -2.5,0.8 -1.1,0.3 -2.3,0.8 -3.8,1.4 -1.4,0.6 -3.1,1.2 -4.8,2 -3.5,1.6 -7.5,3.6 -11.5,6.1 -4,2.5 -8.2,5.5 -12,8.8 -3.9,3.3 -7.4,6.9 -10.5,10.4 -3.1,3.6 -5.7,7.1 -7.8,10.3 -2.1,3.1 -3.6,5.9 -4.6,7.8 -1,1.9 -1.6,3.1 -1.6,3.1 0,0 0.6,-1.1 1.8,-3 1.1,-1.9 2.8,-4.5 5.1,-7.5 2.2,-3 5,-6.3 8.3,-9.6 3.3,-3.3 7,-6.6 10.9,-9.6 3.9,-3 8.1,-5.6 12.2,-7.8 4,-2.2 8,-3.9 11.4,-5.2 1.7,-0.7 3.3,-1.2 4.7,-1.7 1.4,-0.4 2.7,-0.8 3.7,-1.1 1,-0.3 1.8,-0.5 2.4,-0.6 0.6,-0.1 0.9,-0.2 0.9,-0.2 0,0 -0.6,0.8 -1.4,2.1 -0.4,0.6 -0.9,1.4 -1.3,2.2 -0.5,0.8 -0.9,1.7 -1.4,2.5 -1,1.7 -1.8,3.5 -2.4,4.7 -0.6,1.3 -1,2.2 -1,2.2 0,0 0.3,-0.4 0.9,-1 0.5,-0.6 1.4,-1.4 2.4,-2.5 2,-2 4.9,-4.6 8,-7.1 3.1,-2.4 6.5,-4.7 9.2,-6.3 2.4,-1.4 4.3,-2.3 4.3,-2.3 z"
           id="path3712"
           inkscape:connector-curvature="0"
           style="fill:#ef7378" /></g></g></g><g
     id="g3714"
     transform="translate(-101.22767,-121.26156)"><path
       class="st5"
       d="m 496.7,231.9 c 0,-6.7 -0.1,-13 0.1,-19.2 0.1,-1.9 0.8,-4 1.8,-5.7 1.6,-2.8 1.6,-5.2 -0.2,-7.8 -0.9,-1.4 -1.6,-3.3 -1.7,-5 -0.2,-6.5 -0.1,-13 -0.1,-19.7 -2.3,0 -4.3,0 -6.2,0 -1.6,6.6 -6.1,10.9 -11.6,13.7 -5.4,2.7 -11.3,4.4 -17.3,6.6 0,5.4 0,11.6 0,17.6 13,1.9 24,6.2 29.2,19.5 1.9,0 3.7,0 6,0 z m -32.3,-0.3 c -5.7,-12.3 -7.3,-24.9 -6,-38.1 -4.1,0 -7.6,0.2 -11,-0.1 -5.7,-0.5 -8.3,3.6 -11,7.3 -0.8,1.1 -0.8,3.8 0,4.8 2,2.6 4.3,5.3 7.1,6.7 2.1,1.1 2.9,2.2 3.5,4.1 1.9,6.2 3.9,12.4 5.9,18.8 3.8,-1.2 7.3,-2.2 11.5,-3.5 z"
       id="path3716"
       inkscape:connector-curvature="0"
       style="fill:#c1272d" /><path
       class="st5"
       d="m 496.7,231.9 c -2.3,0 -4.2,0 -5.9,0 -5.2,-13.3 -16.3,-17.6 -29.2,-19.5 0,-6 0,-12.3 0,-17.6 6,-2.3 11.9,-3.9 17.3,-6.6 5.5,-2.8 10,-7.2 11.6,-13.7 2,0 3.9,0 6.2,0 0,6.7 -0.1,13.2 0.1,19.7 0,1.7 0.8,3.5 1.7,5 1.7,2.7 1.8,5.1 0.2,7.8 -1,1.7 -1.8,3.8 -1.8,5.7 -0.3,6.2 -0.2,12.5 -0.2,19.2 z"
       id="path3718"
       inkscape:connector-curvature="0"
       style="fill:#c1272d" /><path
       class="st5"
       d="m 464.4,231.6 c -4.3,1.3 -7.7,2.4 -11.5,3.5 -2,-6.4 -4,-12.5 -5.9,-18.8 -0.6,-2 -1.4,-2.3 -3.5,-3.3 -2.8,-1.4 -6.6,-4.6 -7.9,-7.5 -0.6,-1.2 -0.6,-5.2 0,-6.4 1.8,-4.2 6.1,-6.2 11.8,-5.7 3.4,0.3 6.9,0.1 11,0.1 -1.3,13.2 0.3,25.8 6,38.1 z"
       id="path3720"
       inkscape:connector-curvature="0"
       style="fill:#c1272d" /></g><text
     class="st6 st7"
     id="text3722"
     x="275.87982"
     y="25.056841"
     style="font-size:9.63529968px;font-family:GeosansLight">Réactions vis à vis du contenu proposé</text>
<text
     transform="matrix(0.99999898,-0.00143,0.00143,0.99999898,0,0)"
     class="st6 st7"
     id="text3724"
     x="178.72282"
     y="105.23564"
     style="font-size:9.63529968px;font-family:GeosansLight">Lit des commentaires</text>
<text
     class="st6 st7"
     id="text3726"
     x="16.105831"
     y="189.66043"
     style="font-size:9.63529968px;font-family:GeosansLight">Lit ou ne lit pas les articles</text>
<g
     id="g3728"
     transform="translate(-101.22767,-121.26156)"><circle
       class="st8"
       cx="289"
       cy="312.70001"
       r="13.4"
       id="circle3730"
       style="fill:none;stroke:#c1272d;stroke-width:6;stroke-miterlimit:10" /><circle
       class="st8"
       cx="326.79999"
       cy="312.70001"
       r="13.4"
       id="circle3732"
       style="fill:none;stroke:#c1272d;stroke-width:6;stroke-miterlimit:10" /><g
       id="g3734"><g
         id="g3736"><path
           class="st5"
           d="m 279.6,307.9 c 1.8,-5.5 3.6,-11 5.4,-16.6 1.1,-3.3 2.2,-6.7 3.2,-10 1.2,-3.7 3.4,-5.1 7.8,-4.9 3.9,0.1 3.9,-5.9 0,-6 -4.8,-0.1 -10.7,1.9 -12.7,6.5 -1.2,2.6 -1.8,5.6 -2.7,8.3 -2.3,7 -4.5,14 -6.8,21.1 -1.1,3.7 4.7,5.3 5.8,1.6 l 0,0 z"
           id="path3738"
           inkscape:connector-curvature="0"
           style="fill:#c1272d" /></g></g><g
       id="g3740"><g
         id="g3742"><path
           class="st5"
           d="m 342.1,306.4 c -2.3,-7 -4.5,-14 -6.8,-21.1 -0.9,-2.7 -1.5,-5.6 -2.7,-8.2 -2,-4.8 -7.9,-6.7 -12.8,-6.6 -3.9,0.1 -3.9,6.1 0,6 4.3,-0.1 6.7,1.2 7.8,4.9 1.1,3.3 2.2,6.7 3.2,10 1.8,5.5 3.6,11 5.4,16.6 1.3,3.6 7.1,2 5.9,-1.6 l 0,0 z"
           id="path3744"
           inkscape:connector-curvature="0"
           style="fill:#c1272d" /></g></g><line
       class="st9"
       x1="302"
       y1="313"
       x2="313"
       y2="313"
       id="line3746"
       style="fill:none;stroke:#c1272d;stroke-width:4;stroke-miterlimit:10" /></g><text
     class="st3 st6 st7"
     id="text3748"
     x="518.44519"
     y="359.91144"
     style="font-size:9.63529968px;font-family:GeosansLight;fill:#999999">Responsabilité des sites pour les commentaires</text>
<path
     class="st10"
     d="M 295.17233,348.63844"
     id="path3750"
     inkscape:connector-curvature="0"
     style="fill:none;stroke:#c1272d;stroke-width:7;stroke-miterlimit:10" /><g
     id="g3752"
     transform="translate(-101.22767,-121.26156)"><path
       class="st11"
       d="m 397.3,436.7 c 1.9,0.1 9.2,0.2 11.2,0.3 l 0,36.3 c 0,3.6 -0.2,5.6 -1.7,7.6 -2.2,2.3 -4.4,2.3 -8.6,2.3 -4,0 -28.5,-0.2 -39,-0.4 -0.9,0 -3.7,-0.1 -5.8,-1.6 -3.5,-2.5 -4,-5.7 -4,-7.3 l 0,0.1 c 0,0 0,1.6 0,-43.4 l 47.3,0 c -0.2,45 0,46.5 0,46.5 0.4,4.5 4.2,6.5 6.8,5.6"
       id="path3754"
       inkscape:connector-curvature="0"
       style="fill:none;stroke:#c1272d;stroke-width:3;stroke-miterlimit:10" /><g
       id="g3756"><rect
         x="355.70001"
         y="436.29999"
         class="st12"
         width="26.9"
         height="11.5"
         id="rect3758"
         style="fill:#ffffff;stroke:#c1272d;stroke-miterlimit:10" /><rect
         x="355.89999"
         y="451.89999"
         class="st12"
         width="11.5"
         height="25.200001"
         id="rect3760"
         style="fill:#ffffff;stroke:#c1272d;stroke-miterlimit:10" /><rect
         x="385.20001"
         y="466.29999"
         class="st12"
         width="7.5999999"
         height="10.8"
         id="rect3762"
         style="fill:#ffffff;stroke:#c1272d;stroke-miterlimit:10" /><g
         id="g3764"><g
           id="g3766"><path
             class="st5"
             d="m 385.6,437.9 c 2.4,0 4.8,0 7.2,0 0.6,0 0.6,-1 0,-1 -2.4,0 -4.8,0 -7.2,0 -0.6,0 -0.6,1 0,1 l 0,0 z"
             id="path3768"
             inkscape:connector-curvature="0"
             style="fill:#c1272d" /></g></g><g
         id="g3770"><g
           id="g3772"><path
             class="st5"
             d="m 385.6,440.3 c 2.4,0 4.8,0 7.2,0 0.6,0 0.6,-1 0,-1 -2.4,0 -4.8,0 -7.2,0 -0.6,0 -0.6,1 0,1 l 0,0 z"
             id="path3774"
             inkscape:connector-curvature="0"
             style="fill:#c1272d" /></g></g><g
         id="g3776"><g
           id="g3778"><path
             class="st5"
             d="m 385.6,442.7 c 2.4,0 4.8,0 7.2,0 0.6,0 0.6,-1 0,-1 -2.4,0 -4.8,0 -7.2,0 -0.6,0 -0.6,1 0,1 l 0,0 z"
             id="path3780"
             inkscape:connector-curvature="0"
             style="fill:#c1272d" /></g></g><g
         id="g3782"><g
           id="g3784"><path
             class="st5"
             d="m 385.6,445.1 c 2.4,0 4.8,0 7.2,0 0.6,0 0.6,-1 0,-1 -2.4,0 -4.8,0 -7.2,0 -0.6,0 -0.6,1 0,1 l 0,0 z"
             id="path3786"
             inkscape:connector-curvature="0"
             style="fill:#c1272d" /></g></g><g
         id="g3788"><g
           id="g3790"><path
             class="st5"
             d="m 385.6,447.5 c 2.4,0 4.8,0 7.2,0 0.6,0 0.6,-1 0,-1 -2.4,0 -4.8,0 -7.2,0 -0.6,0 -0.6,1 0,1 l 0,0 z"
             id="path3792"
             inkscape:connector-curvature="0"
             style="fill:#c1272d" /></g></g><g
         id="g3794"><g
           id="g3796"><path
             class="st5"
             d="m 370.3,453.1 c 7.2,0 14.5,0 21.7,0 0.6,0 0.6,-1 0,-1 -7.2,0 -14.5,0 -21.7,0 -0.6,0 -0.6,1 0,1 l 0,0 z"
             id="path3798"
             inkscape:connector-curvature="0"
             style="fill:#c1272d" /></g></g><g
         id="g3800"><g
           id="g3802"><path
             class="st5"
             d="m 370.3,455.5 c 7.2,0 14.5,0 21.7,0 0.6,0 0.6,-1 0,-1 -7.2,0 -14.5,0 -21.7,0 -0.6,0 -0.6,1 0,1 l 0,0 z"
             id="path3804"
             inkscape:connector-curvature="0"
             style="fill:#c1272d" /></g></g><g
         id="g3806"><g
           id="g3808"><path
             class="st5"
             d="m 370.3,458 c 7.2,0 14.5,0 21.7,0 0.6,0 0.6,-1 0,-1 -7.2,0 -14.5,0 -21.7,0 -0.6,0 -0.6,1 0,1 l 0,0 z"
             id="path3810"
             inkscape:connector-curvature="0"
             style="fill:#c1272d" /></g></g><g
         id="g3812"><g
           id="g3814"><path
             class="st5"
             d="m 370.3,460.4 c 7.2,0 14.5,0 21.7,0 0.6,0 0.6,-1 0,-1 -7.2,0 -14.5,0 -21.7,0 -0.6,0 -0.6,1 0,1 l 0,0 z"
             id="path3816"
             inkscape:connector-curvature="0"
             style="fill:#c1272d" /></g></g><g
         id="g3818"><g
           id="g3820"><path
             class="st5"
             d="m 370.3,462.8 c 7.2,0 14.5,0 21.7,0 0.6,0 0.6,-1 0,-1 -7.2,0 -14.5,0 -21.7,0 -0.6,0 -0.6,1 0,1 l 0,0 z"
             id="path3822"
             inkscape:connector-curvature="0"
             style="fill:#c1272d" /></g></g><g
         id="g3824"><g
           id="g3826"><path
             class="st5"
             d="m 370.3,465.2 c 7.2,0 14.5,0 21.7,0 0.6,0 0.6,-1 0,-1 -7.2,0 -14.5,0 -21.7,0 -0.6,0 -0.6,1 0,1 l 0,0 z"
             id="path3828"
             inkscape:connector-curvature="0"
             style="fill:#c1272d" /></g></g><g
         id="g3830"><g
           id="g3832"><path
             class="st5"
             d="m 370.3,467.6 c 4.6,0 9.1,0 13.7,0 0.6,0 0.6,-1 0,-1 -4.5,0 -9.1,0 -13.7,0 -0.6,0 -0.6,1 0,1 l 0,0 z"
             id="path3834"
             inkscape:connector-curvature="0"
             style="fill:#c1272d" /></g></g><g
         id="g3836"><g
           id="g3838"><path
             class="st5"
             d="m 370.3,470 c 4.6,0 9.1,0 13.7,0 0.6,0 0.6,-1 0,-1 -4.5,0 -9.1,0 -13.7,0 -0.6,0 -0.6,1 0,1 l 0,0 z"
             id="path3840"
             inkscape:connector-curvature="0"
             style="fill:#c1272d" /></g></g><g
         id="g3842"><g
           id="g3844"><path
             class="st5"
             d="m 370.3,472.4 c 4.6,0 9.1,0 13.7,0 0.6,0 0.6,-1 0,-1 -4.5,0 -9.1,0 -13.7,0 -0.6,0 -0.6,1 0,1 l 0,0 z"
             id="path3846"
             inkscape:connector-curvature="0"
             style="fill:#c1272d" /></g></g><g
         id="g3848"><g
           id="g3850"><path
             class="st5"
             d="m 370.3,474.8 c 4.6,0 9.1,0 13.7,0 0.6,0 0.6,-1 0,-1 -4.5,0 -9.1,0 -13.7,0 -0.6,0 -0.6,1 0,1 l 0,0 z"
             id="path3852"
             inkscape:connector-curvature="0"
             style="fill:#c1272d" /></g></g><g
         id="g3854"><g
           id="g3856"><path
             class="st5"
             d="m 370.3,477.2 c 4.6,0 9.1,0 13.7,0 0.6,0 0.6,-1 0,-1 -4.5,0 -9.1,0 -13.7,0 -0.6,0 -0.6,1 0,1 l 0,0 z"
             id="path3858"
             inkscape:connector-curvature="0"
             style="fill:#c1272d" /></g></g></g></g><text
     class="st6 st7"
     id="text3860"
     x="-0.075275779"
     y="347.50214"
     style="font-size:9.63529968px;font-family:GeosansLight">À l’origine du contenu partagé sur le site web</text>
<g
     id="g3862"
     transform="translate(-101.22767,-121.26156)"><g
       id="g3864"><path
         class="st13"
         d="m 630.4,335.2 -1.7,-1.5 c -1.1,-1 -2.2,-1.9 -3.1,-2.8 -3.7,-3.1 -6.8,-5.9 -12.3,-13.6 -13.4,-19 -12.4,-36.2 -12.3,-37 l 0.2,-2.3 2.3,0 c 0.1,0 8,-0.1 14.6,-2.1 5.4,-1.7 8.8,-3.5 11,-5.9 l 1.9,-2.1 1.9,2.1 c 2.2,2.4 5.5,4.1 11.1,5.9 6.6,2 14.5,2.1 14.6,2.1 l 2.3,0 0.2,2.3 c 0,0.7 1.1,18 -12.3,37 -5.1,7.3 -8.8,10.2 -12.3,13 -1.3,1 -2.6,2.1 -4,3.4 l -2.1,1.5 z M 606,282.9 c 0.2,5 1.8,17.8 11.4,31.5 5.1,7.3 7.9,9.7 11.5,12.7 0.5,0.4 1,0.9 1.6,1.4 0.9,-0.7 1.7,-1.4 2.6,-2.1 3.4,-2.7 6.7,-5.3 11.4,-12 9.6,-13.7 11.2,-26.5 11.4,-31.6 -3.1,-0.2 -8.5,-0.7 -13.5,-2.2 -5.2,-1.6 -8.8,-3.3 -11.4,-5.5 -2.7,2.3 -6.3,4 -11.3,5.6 -5.2,1.4 -10.6,2 -13.7,2.2 z"
         id="path3866"
         inkscape:connector-curvature="0"
         style="fill:#cccccc" /><g
         id="g3868"><g
           id="g3870"><line
             class="st13"
             x1="613.40002"
             y1="286.20001"
             x2="618.09998"
             y2="291.60001"
             id="line3872"
             style="fill:#cccccc" /><g
             id="g3874"><path
               class="st13"
               d="m 612.3,287.3 c 1.6,1.8 3.2,3.6 4.7,5.4 1.3,1.5 3.4,-0.7 2.1,-2.1 -1.6,-1.8 -3.2,-3.6 -4.7,-5.4 -1.2,-1.5 -3.4,0.6 -2.1,2.1 l 0,0 z"
               id="path3876"
               inkscape:connector-curvature="0"
               style="fill:#cccccc" /></g></g><path
           class="st13"
           d="m 621.1,281.9 c 1,1.8 2,3.7 3,5.5 0.9,1.7 3.5,0.2 2.6,-1.5 -1,-1.8 -2,-3.7 -3,-5.5 -0.9,-1.7 -3.5,-0.2 -2.6,1.5 l 0,0 z"
           id="path3878"
           inkscape:connector-curvature="0"
           style="fill:#cccccc" /><path
           class="st13"
           d="m 647.6,285.1 c -1.6,1.8 -3.2,3.6 -4.7,5.4 -1.3,1.4 0.8,3.6 2.1,2.1 1.6,-1.8 3.2,-3.6 4.7,-5.4 1.3,-1.4 -0.8,-3.5 -2.1,-2.1 l 0,0 z"
           id="path3880"
           inkscape:connector-curvature="0"
           style="fill:#cccccc" /><path
           class="st13"
           d="m 638.4,280.4 c -1,1.8 -2,3.7 -3,5.5 -0.9,1.7 1.7,3.2 2.6,1.5 1,-1.8 2,-3.7 3,-5.5 0.9,-1.7 -1.7,-3.2 -2.6,-1.5 l 0,0 z"
           id="path3882"
           inkscape:connector-curvature="0"
           style="fill:#cccccc" /><g
           id="g3884"><path
             class="st13"
             d="m 643.6,309 -24.6,0 0.1,-11.8 c 0,-5.4 5.5,-9.8 12.2,-9.8 6.7,0 12.2,4.4 12.2,9.9 l 0.1,11.7 z m -22.7,-2 20.6,0 -0.1,-9.6 c 0,-4.4 -4.6,-7.9 -10.2,-7.9 -5.6,0 -10.2,3.5 -10.2,7.8 l -0.1,9.7 z"
             id="path3886"
             inkscape:connector-curvature="0"
             style="fill:#cccccc" /><g
             id="g3888"><g
               id="g3890"><path
                 class="st13"
                 d="m 626,296 c 0,-3 3.4,-6.5 7.7,-6.5 4.2,0 7.7,3.5 7.7,6.5 l -15.4,0 z"
                 id="path3892"
                 inkscape:connector-curvature="0"
                 style="fill:#cccccc" /><path
                 class="st13"
                 d="m 642,296 -16,0 0,-0.5 c 0,-3.2 3.4,-7 8,-7 4.6,0 8,3.7 8,7 l 0,0.5 z m -15.4,-1 14.3,0 c -0.4,-2.6 -3.4,-5.5 -7.1,-5.5 -3.8,0 -6.9,2.9 -7.2,5.5 z"
                 id="path3894"
                 inkscape:connector-curvature="0"
                 style="fill:#cccccc" /></g><g
               id="g3896"><rect
                 x="626"
                 y="295.20001"
                 class="st13"
                 width="16"
                 height="12.6"
                 id="rect3898"
                 style="fill:#cccccc" /><path
                 class="st13"
                 d="m 642.5,308.4 -16.4,0 0,-13.6 16.4,0 0,13.6 z m -16,-1 15,0 0,-11.6 -15,0 0,11.6 z"
                 id="path3900"
                 inkscape:connector-curvature="0"
                 style="fill:#cccccc" /></g></g></g></g></g><rect
       x="619"
       y="310"
       class="st13"
       width="24"
       height="2"
       id="rect3902"
       style="fill:#cccccc" /></g><text
     class="st3 st6 st7"
     id="text3904"
     x="585.9823"
     y="190.26773"
     style="font-size:9.63529968px;font-family:GeosansLight;fill:#999999">Valide ou supprime les commentaires sur le site</text>
<circle
     class="st10"
     cx="206.57231"
     cy="179.53842"
     r="46.200001"
     id="circle3906"
     style="fill:none;stroke:#c1272d;stroke-width:7;stroke-miterlimit:10" /><path
     class="st13"
     d="m 461.57233,383.53844 c -27.4,0 -49.7,-22.3 -49.7,-49.7 0,-27.4 22.3,-49.7 49.7,-49.7 27.4,0 49.7,22.3 49.7,49.7 0,27.4 -22.3,49.7 -49.7,49.7 z m 0,-92.3 c -23.5,0 -42.7,19.1 -42.7,42.7 0,23.6 19.1,42.7 42.7,42.7 23.6,0 42.7,-19.1 42.7,-42.7 0,-23.6 -19.2,-42.7 -42.7,-42.7 z"
     id="path3908"
     inkscape:connector-curvature="0"
     style="fill:#cccccc" /><circle
     class="st10"
     cx="368.77231"
     cy="83.538445"
     r="46.200001"
     id="circle3910"
     style="fill:none;stroke:#c1272d;stroke-width:7;stroke-miterlimit:10" /><g
     id="g3912"
     transform="translate(-101.22767,-121.26156)"><g
       id="g3914"><g
         id="g3916"><path
           class="st13"
           d="m 557.9,426 c 0,15 0,30 0,45 0,6.4 10,6.4 10,0 0,-15 0,-30 0,-45 0,-6.4 -10,-6.5 -10,0 l 0,0 z"
           id="path3918"
           inkscape:connector-curvature="0"
           style="fill:#cccccc" /></g></g><path
       class="st18"
       d="m 549.4,482.7 c 0,-7.8 6.4,-10.2 14.2,-10.2 7.8,0 14.2,2.3 14.2,10.2"
       id="path3920"
       inkscape:connector-curvature="0"
       style="fill:none;stroke:#cccccc;stroke-width:7;stroke-miterlimit:10" /><g
       id="g3922"><g
         id="g3924"><path
           class="st13"
           d="m 541.6,486.7 c 14.5,0 28.9,0 43.4,0 0,0 0,-5 0,-5 -14.5,0 -28.9,0 -43.4,0 0,0 0,5 0,5 l 0,0 z"
           id="path3926"
           inkscape:connector-curvature="0"
           style="fill:#cccccc" /></g></g><g
       id="g3928"><g
         id="g3930"><path
           class="st13"
           d="m 562,434 c -4,-3.9 -9.6,-7.6 -15.2,-4.4 -5,2.9 -5.6,10.1 -12.1,3.7 -2.7,-2.7 -7,1.5 -4.2,4.2 4.3,4.3 11,6.9 15.7,1.5 0.9,-1.1 1.5,-2.4 2.6,-3.4 3.2,-2.9 6.5,0.2 9,2.6 2.8,2.7 7,-1.5 4.2,-4.2 l 0,0 z"
           id="path3932"
           inkscape:connector-curvature="0"
           style="fill:#cccccc" /></g></g><g
       id="g3934"><g
         id="g3936"><path
           class="st13"
           d="m 566.8,439 c 2.3,-2.3 5.7,-5.4 8.8,-2.8 1.2,1 1.8,2.5 2.8,3.6 4.7,5.4 11.3,2.8 15.7,-1.5 2.7,-2.7 -1.5,-7 -4.2,-4.2 -6.4,6.4 -7.1,-0.8 -12.1,-3.7 -5.6,-3.2 -11.2,0.5 -15.2,4.4 -2.8,2.7 1.4,6.9 4.2,4.2 l 0,0 z"
           id="path3938"
           inkscape:connector-curvature="0"
           style="fill:#cccccc" /></g></g><g
       id="g3940"><path
         class="st19"
         d="m 549.6,456.5 c 0,4 -4.8,9.4 -10.7,9.4 -5.9,0 -10.7,-5.4 -10.7,-9.4 l 21.4,0 z"
         id="path3942"
         inkscape:connector-curvature="0"
         style="fill:#ffffff;stroke:#cccccc;stroke-width:5;stroke-miterlimit:10" /><line
         class="st20"
         x1="530.09998"
         y1="455.70001"
         x2="538.90002"
         y2="440.79999"
         id="line3944"
         style="fill:none;stroke:#cccccc;stroke-width:3;stroke-miterlimit:10" /><line
         class="st20"
         x1="538.90002"
         y1="440.79999"
         x2="547.79999"
         y2="455.70001"
         id="line3946"
         style="fill:none;stroke:#cccccc;stroke-width:3;stroke-miterlimit:10" /></g><g
       id="g3948"><path
         class="st19"
         d="m 597,456.5 c 0,4 -4.8,9.4 -10.7,9.4 -5.9,0 -10.7,-5.4 -10.7,-9.4 l 21.4,0 z"
         id="path3950"
         inkscape:connector-curvature="0"
         style="fill:#ffffff;stroke:#cccccc;stroke-width:5;stroke-miterlimit:10" /><line
         class="st20"
         x1="577.5"
         y1="455.70001"
         x2="586.29999"
         y2="440.79999"
         id="line3952"
         style="fill:none;stroke:#cccccc;stroke-width:3;stroke-miterlimit:10" /><line
         class="st20"
         x1="586.29999"
         y1="440.79999"
         x2="595.20001"
         y2="455.70001"
         id="line3954"
         style="fill:none;stroke:#cccccc;stroke-width:3;stroke-miterlimit:10" /></g></g><circle
     class="st18"
     cx="529.57233"
     cy="179.53842"
     r="46.200001"
     id="circle3956"
     style="fill:none;stroke:#cccccc;stroke-width:7;stroke-miterlimit:10" /><path
     class="st10"
     d="m 322.77233,334.63844 c 0,25.5 -20.7,46.2 -46.2,46.2 -25.5,0 -46.2,-20.7 -46.2,-46.2 0,-25.5 20.7,-46.2 46.2,-46.2 17.6,0 30,10.9 31.9,12.8 1.6,1.6 14.3,14.5 14.3,33.4 z"
     id="path3958"
     inkscape:connector-curvature="0"
     style="fill:none;stroke:#c1272d;stroke-width:7;stroke-miterlimit:10" /><path
     class="st21"
     d="M 473.57233,108.93844"
     id="path3960"
     inkscape:connector-curvature="0"
     style="fill:none;stroke:#c24f54;stroke-miterlimit:10" /><path
     class="st21"
     d="m 265.47233,104.53844 8.8,8.1 c 0,0 -5,-9 -7.8,-12.699997 -0.2,-0.3 -1,-1.2 -1,-1.2 0,-4.7 -3.8,-8.5 -8.5,-8.5 l -79.7,0 c -4.7,0 -9,3.8 -9,8.4 l 0,5.699997 c 0,4.7 4.4,8.9 9,8.9 l 79.7,0 c 4.7,0 8.5,-4 8.5,-8.7 z"
     id="path3962"
     inkscape:connector-curvature="0"
     style="fill:none;stroke:#c24f54;stroke-miterlimit:10" /><text
     transform="matrix(0.99999898,-0.00143,0.00143,0.99999898,0,0)"
     class="st6 st7"
     id="text3964"
     x="358.09976"
     y="237.3253"
     style="font-size:9.63529968px;font-family:GeosansLight">Participation de l’internaute</text>
<path
     class="st21"
     d="m 352.67233,236.53844 c 0,0 -14.3,1.4 -9.9,0.1 2.3,-0.7 6.9,-1 9.1,-4.7 l 0.8,-1.2 c 0,-4.7 2.9,-8.5 6.5,-8.5 l 131.2,0 c 3.6,0 6.9,3.8 6.9,8.4 l 0,5.7 c 0,4.7 -3.4,8.9 -6.9,8.9 l -131.2,0 c -3.6,0 -6.5,-4 -6.5,-8.7 z"
     id="path3966"
     inkscape:connector-curvature="0"
     style="fill:none;stroke:#c24f54;stroke-miterlimit:10"
     sodipodi:nodetypes="ccccssssssc" /><line
     class="st22"
     x1="309.77231"
     y1="14.238441"
     x2="427.77231"
     y2="14.238441"
     id="line3968"
     style="fill:none;stroke:#ed6167;stroke-miterlimit:10" /><line
     class="st22"
     x1="85.772331"
     y1="179.23843"
     x2="143.77232"
     y2="179.23843"
     id="line3970"
     style="fill:none;stroke:#ed6167;stroke-miterlimit:10" /><line
     class="st22"
     x1="42.772327"
     y1="337.23843"
     x2="214.77232"
     y2="337.23843"
     id="line3972"
     style="fill:none;stroke:#ed6167;stroke-miterlimit:10" /><line
     class="st23"
     x1="517.77234"
     y1="348.23843"
     x2="646.77234"
     y2="348.23843"
     id="line3974"
     style="fill:#999999;stroke:#cccccc;stroke-miterlimit:10" /><line
     class="st23"
     x1="586.77234"
     y1="179.23843"
     x2="676.77234"
     y2="179.23843"
     id="line3976"
     style="fill:#999999;stroke:#cccccc;stroke-miterlimit:10" /><g
     id="g3978"
     transform="translate(-101.22767,-121.26156)"><g
       id="g3980"><g
         id="g3982"><path
           class="st24"
           d="m 401.8,412.3 c 0,0 0.7,-0.5 2,-1.4 1.3,-0.9 3.1,-2.2 5.2,-3.8 4.3,-3.2 9.8,-7.8 15.2,-12.8 5.3,-4.9 10.5,-10.2 14.2,-14.4 1.9,-2.1 3.3,-3.9 4.4,-5.1 1.1,-1.2 1.7,-2 1.7,-2 0,0 -0.3,0.3 -0.9,0.7 -0.6,0.4 -1.3,1.1 -2.3,1.8 -1,0.7 -2,1.6 -3.2,2.5 -1.2,0.9 -2.5,1.8 -3.8,2.8 -2.6,1.9 -5.2,3.6 -7.1,4.9 -2,1.3 -3.3,2.1 -3.3,2.1 0,0 0.3,-0.5 0.9,-1.4 0.6,-0.9 1.4,-2.2 2.4,-3.9 2,-3.4 4.7,-8.3 7.7,-14.3 3,-6 6.1,-13.2 9,-21.1 2.9,-7.9 5.4,-16.5 7.4,-25.2 2,-8.7 3.4,-17.5 4.2,-25.9 0.8,-8.3 1.1,-16.1 1,-22.8 0,-6.7 -0.4,-12.2 -0.7,-16.1 -0.2,-1.9 -0.3,-3.5 -0.4,-4.5 -0.1,-1 -0.2,-1.6 -0.2,-1.6 0,0 0,0.6 0.1,1.6 0.1,1 0.2,2.6 0.3,4.5 0.2,3.9 0.4,9.4 0.2,16.1 -0.2,6.6 -0.7,14.4 -1.8,22.6 -1.1,8.2 -2.8,16.9 -5,25.5 -2.2,8.5 -5.1,16.9 -8.2,24.6 -3.1,7.7 -6.4,14.6 -9.5,20.4 -3.2,5.8 -6,10.5 -8.1,13.7 -1,1.6 -1.9,2.9 -2.4,3.7 -0.6,0.9 -0.9,1.3 -0.9,1.3 0,0 0.2,-1.5 0.5,-3.8 0.3,-2.3 0.6,-5.3 0.8,-8.2 0.1,-1.5 0.2,-3 0.3,-4.4 0.1,-1.4 0.1,-2.7 0.2,-3.8 0,-1.1 0.1,-2 0.1,-2.7 0,-0.6 0,-1 0,-1 0,0 -0.2,0.8 -0.6,2.2 -0.4,1.4 -0.8,3.5 -1.6,5.9 -1.3,4.9 -3.4,11.3 -5.9,17.7 -2.5,6.4 -5.4,12.7 -7.7,17.4 -1.2,2.3 -2.2,4.3 -3,5.6 -0.8,1.8 -1.2,2.6 -1.2,2.6 z"
           id="path3984"
           inkscape:connector-curvature="0"
           style="fill:#f18387" /></g></g></g></svg>