<?xml version="1.0" encoding="UTF-8" standalone="no"?>
<!-- Generator: Adobe Illustrator 19.1.1, SVG Export Plug-In . SVG Version: 6.00 Build 0)  -->

<svg
   xmlns:dc="http://purl.org/dc/elements/1.1/"
   xmlns:cc="http://creativecommons.org/ns#"
   xmlns:rdf="http://www.w3.org/1999/02/22-rdf-syntax-ns#"
   xmlns:svg="http://www.w3.org/2000/svg"
   xmlns="http://www.w3.org/2000/svg"
   xmlns:sodipodi="http://sodipodi.sourceforge.net/DTD/sodipodi-0.dtd"
   xmlns:inkscape="http://www.inkscape.org/namespaces/inkscape"
   version="1.1"
   id="Calque_1"
   x="0px"
   y="0px"
   viewBox="80 361 809.26246 385.73843"
   xml:space="preserve"
   inkscape:version="0.91 r13725"
   sodipodi:docname="seconde-période.svg"
   width="809.26245"
   height="385.73843"><metadata
     id="metadata4999"><rdf:RDF><cc:Work
         rdf:about=""><dc:format>image/svg+xml</dc:format><dc:type
           rdf:resource="http://purl.org/dc/dcmitype/StillImage" /><dc:title></dc:title></cc:Work></rdf:RDF></metadata><defs
     id="defs4997" /><sodipodi:namedview
     pagecolor="#ffffff"
     bordercolor="#666666"
     borderopacity="1"
     objecttolerance="10"
     gridtolerance="10"
     guidetolerance="10"
     inkscape:pageopacity="0"
     inkscape:pageshadow="2"
     inkscape:window-width="1920"
     inkscape:window-height="1080"
     id="namedview4995"
     showgrid="false"
     fit-margin-top="0"
     fit-margin-left="0"
     fit-margin-right="0"
     fit-margin-bottom="0"
     inkscape:zoom="1.1575153"
     inkscape:cx="436.22444"
     inkscape:cy="67.303332"
     inkscape:window-x="0"
     inkscape:window-y="0"
     inkscape:window-maximized="0"
     inkscape:current-layer="Calque_1" /><style
     type="text/css"
     id="style4515">
	.st0{fill:#F2F2F2;}
	.st1{font-family:'Nauman-Regular';}
	.st2{font-size:16.0588px;}
	.st3{fill:#688387;}
	.st4{fill:#EF7378;}
	.st5{fill:#C1272D;}
	.st6{font-family:'GeosansLight';}
	.st7{font-size:9.6353px;}
	.st8{fill:none;stroke:#C1272D;stroke-width:6;stroke-miterlimit:10;}
	.st9{fill:none;stroke:#C1272D;stroke-width:4;stroke-miterlimit:10;}
	.st10{fill:none;stroke:#C1272D;stroke-width:7;stroke-miterlimit:10;}
	.st11{fill:#FFFFFF;stroke:#C1272D;stroke-width:5;stroke-miterlimit:10;}
	.st12{fill:none;stroke:#C1272D;stroke-width:3;stroke-miterlimit:10;}
	.st13{fill:#FFFFFF;stroke:#C1272D;stroke-miterlimit:10;}
	.st14{fill:none;stroke:#C1272D;stroke-width:5;stroke-miterlimit:10;}
	.st15{fill:none;stroke:#C1272D;stroke-width:2;stroke-miterlimit:10;}
	.st16{fill:#C1272D;stroke:#C1272D;stroke-miterlimit:10;}
	.st17{font-size:30px;}
	.st18{enable-background:new    ;}
	.st19{font-family:'GeosansLight-Oblique';}
	.st20{font-size:24px;}
	.st21{fill:#030303;}
	.st22{fill:#F70505;}
	.st23{fill:#FDFDFD;}
	.st24{fill:#6E696B;}
	.st25{fill:#B7322B;}
	.st26{fill:#BD443E;}
	.st27{fill:#858082;}
	.st28{fill:#FBF8F7;}
	.st29{fill:none;stroke:#C24F54;stroke-miterlimit:10;}
	.st30{fill:none;stroke:#688387;stroke-miterlimit:10;}
	.st31{fill:none;stroke:#688387;stroke-width:1.0586;stroke-miterlimit:10;}
	.st32{fill:none;stroke:#ED6167;stroke-miterlimit:10;}
	.st33{fill:#FFFFFF;}
	.st34{fill:#F2F2F2;stroke:#C24F54;stroke-miterlimit:10;}
	.st35{font-size:16px;}
</style><text
     class="st1 st2"
     id="text4519"
     style="font-size:16.05879974px;font-family:Nauman-Regular"
     x="155.89682"
     y="537.15942">Lecteur</text>
<text
     class="st1 st2"
     id="text4521"
     style="font-size:16.05879974px;font-family:Nauman-Regular"
     x="378.92371"
     y="372.91864">Commentateur</text>
<text
     class="st1 st2"
     id="text4523"
     style="font-size:16.05879974px;font-family:Nauman-Regular"
     x="589.92767"
     y="694.85126">Aspect juridique</text>
<text
     class="st1 st2"
     id="text4525"
     style="font-size:16.05879974px;font-family:Nauman-Regular"
     x="657.11127"
     y="537.36444">Modérateur</text>
<text
     class="st1 st2"
     id="text4527"
     style="font-size:16.05879974px;font-family:Nauman-Regular"
     x="200.43832"
     y="694.85187">Journaliste</text>
<g
     id="g4529"
     transform="translate(-110.22768,-121.26156)"><g
       id="g4531"><g
         id="g4533"><path
           class="st3"
           d="m 503.8,582.8 c 0,0 -2,-0.7 -5.1,-1.5 -3.1,-0.8 -7.3,-1.8 -11.7,-2.4 -4.4,-0.6 -8.9,-0.9 -12.4,-1 -3.5,-0.1 -5.8,0.1 -5.8,0.1 0,0 1.1,0.3 2.7,0.7 1.6,0.5 3.7,1.1 5.7,1.8 1,0.4 2,0.7 3,1.1 0.9,0.4 1.8,0.7 2.5,1 1.5,0.6 2.4,1 2.4,1 0,0 -0.3,0.1 -0.9,0.3 -0.6,0.2 -1.4,0.5 -2.5,0.8 -1.1,0.3 -2.3,0.8 -3.8,1.4 -1.4,0.6 -3.1,1.2 -4.8,2 -3.5,1.6 -7.5,3.6 -11.5,6.1 -4,2.5 -8.2,5.5 -12,8.8 -3.9,3.3 -7.4,6.9 -10.5,10.4 -3.1,3.6 -5.7,7.1 -7.8,10.3 -2.1,3.1 -3.6,5.9 -4.6,7.8 -1,1.9 -1.6,3.1 -1.6,3.1 0,0 0.6,-1.1 1.8,-3 1.1,-1.9 2.8,-4.5 5.1,-7.5 2.2,-3 5,-6.3 8.3,-9.6 3.3,-3.3 7,-6.6 10.9,-9.6 3.9,-3 8.1,-5.6 12.2,-7.8 4,-2.2 8,-3.9 11.4,-5.2 1.7,-0.7 3.3,-1.2 4.7,-1.7 1.4,-0.4 2.7,-0.8 3.7,-1.1 1,-0.3 1.8,-0.5 2.4,-0.6 0.6,-0.1 0.9,-0.2 0.9,-0.2 0,0 -0.6,0.8 -1.4,2.1 -0.4,0.6 -0.9,1.4 -1.3,2.2 -0.5,0.8 -0.9,1.7 -1.4,2.5 -1,1.7 -1.8,3.5 -2.4,4.7 -0.6,1.3 -1,2.2 -1,2.2 0,0 0.3,-0.4 0.9,-1 0.5,-0.6 1.4,-1.4 2.4,-2.5 2,-2 4.9,-4.6 8,-7.1 3.1,-2.4 6.5,-4.7 9.2,-6.3 2.4,-1.4 4.3,-2.3 4.3,-2.3 z"
           id="path4535"
           inkscape:connector-curvature="0"
           style="fill:#688387" /></g></g></g><g
     id="g4537"
     transform="translate(-110.22768,-121.26156)"><g
       id="g4539"><g
         id="g4541"><path
           class="st4"
           d="m 596.6,582.8 c 0,0 1.9,0.9 4.5,2.5 2.7,1.6 6,3.8 9.2,6.3 3.1,2.4 6,5.1 7.9,7.1 2,2 3.2,3.5 3.2,3.5 0,0 -0.4,-0.9 -1,-2.2 -0.6,-1.3 -1.4,-3 -2.4,-4.7 -0.5,-0.9 -1,-1.7 -1.4,-2.5 -0.5,-0.8 -0.9,-1.5 -1.3,-2.2 -0.8,-1.3 -1.4,-2.1 -1.4,-2.1 0,0 0.3,0.1 0.8,0.2 0.5,0.1 1.4,0.4 2.4,0.6 2,0.6 5,1.4 8.4,2.8 3.4,1.3 7.3,3 11.4,5.2 4,2.2 8.2,4.8 12.1,7.8 3.9,3 7.6,6.2 10.9,9.5 3.2,3.3 6,6.6 8.3,9.6 2.2,3 3.9,5.6 5.1,7.4 1.1,1.9 1.7,2.9 1.7,2.9 0,0 -0.5,-1.1 -1.6,-3.1 -1,-1.9 -2.6,-4.6 -4.6,-7.8 -2.1,-3.1 -4.7,-6.7 -7.7,-10.2 -3.1,-3.6 -6.6,-7.1 -10.5,-10.4 -3.8,-3.3 -7.9,-6.3 -12,-8.8 -4,-2.5 -8,-4.6 -11.5,-6.1 -3.5,-1.6 -6.5,-2.7 -8.6,-3.4 -1.1,-0.4 -1.9,-0.6 -2.5,-0.8 -0.6,-0.2 -0.9,-0.3 -0.9,-0.3 0,0 0.9,-0.4 2.4,-1 0.7,-0.3 1.6,-0.6 2.5,-1 0.9,-0.3 1.9,-0.7 3,-1.1 2,-0.7 4.1,-1.3 5.7,-1.8 1.6,-0.4 2.7,-0.7 2.7,-0.7 0,0 -2.3,-0.1 -5.8,-0.1 -3.5,0.1 -8,0.3 -12.4,1 -4.4,0.6 -8.6,1.6 -11.7,2.4 -2.9,0.8 -4.9,1.5 -4.9,1.5 z"
           id="path4543"
           inkscape:connector-curvature="0"
           style="fill:#ef7378" /></g></g></g><g
     id="g4545"
     transform="translate(-110.22768,-121.26156)"><path
       class="st5"
       d="m 576.7,592.9 c 0,-6.7 -0.1,-13 0.1,-19.2 0.1,-1.9 0.8,-4 1.8,-5.7 1.6,-2.8 1.6,-5.2 -0.2,-7.8 -0.9,-1.4 -1.6,-3.3 -1.7,-5 -0.2,-6.5 -0.1,-13 -0.1,-19.7 -2.3,0 -4.3,0 -6.2,0 -1.6,6.6 -6.1,10.9 -11.6,13.7 -5.4,2.7 -11.3,4.4 -17.3,6.6 0,5.4 0,11.6 0,17.6 13,1.9 24,6.2 29.2,19.5 1.9,0 3.7,0 6,0 z m -32.3,-0.3 c -5.7,-12.3 -7.3,-24.9 -6,-38.1 -4.1,0 -7.6,0.2 -11,-0.1 -5.7,-0.5 -8.3,3.6 -11,7.3 -0.8,1.1 -0.8,3.8 0,4.8 2,2.6 4.3,5.3 7.1,6.7 2.1,1.1 2.9,2.2 3.5,4.1 1.9,6.2 3.9,12.4 5.9,18.8 3.8,-1.2 7.3,-2.2 11.5,-3.5 z"
       id="path4547"
       inkscape:connector-curvature="0"
       style="fill:#c1272d" /><path
       class="st5"
       d="m 576.7,592.9 c -2.3,0 -4.2,0 -5.9,0 -5.2,-13.3 -16.3,-17.6 -29.2,-19.5 0,-6 0,-12.3 0,-17.6 6,-2.3 11.9,-3.9 17.3,-6.6 5.5,-2.8 10,-7.2 11.6,-13.7 2,0 3.9,0 6.2,0 0,6.7 -0.1,13.2 0.1,19.7 0,1.7 0.8,3.5 1.7,5 1.7,2.7 1.8,5.1 0.2,7.8 -1,1.7 -1.8,3.8 -1.8,5.7 -0.3,6.2 -0.2,12.5 -0.2,19.2 z"
       id="path4549"
       inkscape:connector-curvature="0"
       style="fill:#c1272d" /><path
       class="st5"
       d="m 544.4,592.6 c -4.3,1.3 -7.7,2.4 -11.5,3.5 -2,-6.4 -4,-12.5 -5.9,-18.8 -0.6,-2 -1.4,-2.3 -3.5,-3.3 -2.8,-1.4 -6.6,-4.6 -7.9,-7.5 -0.6,-1.2 -0.6,-5.2 0,-6.4 1.8,-4.2 6.1,-6.2 11.8,-5.7 3.4,0.3 6.9,0.1 11,0.1 -1.3,13.2 0.3,25.8 6,38.1 z"
       id="path4551"
       inkscape:connector-curvature="0"
       style="fill:#c1272d" /></g><text
     class="st6 st7"
     id="text4553"
     style="font-size:9.63529968px;font-family:GeosansLight"
     x="346.87982"
     y="386.05685">Création de contenu, troll, et réactions</text>
<text
     transform="matrix(0.99999898,-0.00143,0.00143,0.99999898,0,0)"
     class="st6 st7"
     id="text4555"
     style="font-size:9.63529968px;font-family:GeosansLight"
     x="130.20662"
     y="466.1666">Vote et met en valeur des commentaires</text>
<text
     class="st6 st7"
     id="text4557"
     style="font-size:9.63529968px;font-family:GeosansLight"
     x="88.10582"
     y="550.66046">Lit ou ne lit pas les articles</text>
<g
     id="g4559"
     transform="translate(-110.22768,-121.26156)"><circle
       class="st8"
       cx="369"
       cy="673.70001"
       r="13.4"
       id="circle4561"
       style="fill:none;stroke:#c1272d;stroke-width:6;stroke-miterlimit:10" /><circle
       class="st8"
       cx="406.79999"
       cy="673.70001"
       r="13.4"
       id="circle4563"
       style="fill:none;stroke:#c1272d;stroke-width:6;stroke-miterlimit:10" /><g
       id="g4565"><g
         id="g4567"><path
           class="st5"
           d="m 359.6,668.9 c 1.8,-5.5 3.6,-11 5.4,-16.6 1.1,-3.3 2.2,-6.7 3.2,-10 1.2,-3.7 3.4,-5.1 7.8,-4.9 3.9,0.1 3.9,-5.9 0,-6 -4.8,-0.1 -10.7,1.9 -12.7,6.5 -1.2,2.6 -1.8,5.6 -2.7,8.3 -2.3,7 -4.5,14 -6.8,21.1 -1.1,3.7 4.7,5.3 5.8,1.6 l 0,0 z"
           id="path4569"
           inkscape:connector-curvature="0"
           style="fill:#c1272d" /></g></g><g
       id="g4571"><g
         id="g4573"><path
           class="st5"
           d="m 422.1,667.4 c -2.3,-7 -4.5,-14 -6.8,-21.1 -0.9,-2.7 -1.5,-5.6 -2.7,-8.2 -2,-4.8 -7.9,-6.7 -12.8,-6.6 -3.9,0.1 -3.9,6.1 0,6 4.3,-0.1 6.7,1.2 7.8,4.9 1.1,3.3 2.2,6.7 3.2,10 1.8,5.5 3.6,11 5.4,16.6 1.3,3.6 7.1,2 5.9,-1.6 l 0,0 z"
           id="path4575"
           inkscape:connector-curvature="0"
           style="fill:#c1272d" /></g></g><line
       class="st9"
       x1="382"
       y1="674"
       x2="393"
       y2="674"
       id="line4577"
       style="fill:none;stroke:#c1272d;stroke-width:4;stroke-miterlimit:10" /></g><text
     class="st6 st7"
     id="text4579"
     style="font-size:9.63529968px;font-family:GeosansLight"
     x="588.44525"
     y="708.91144">Attribue la responsabilité des commentaires publiés</text>
<g
     id="g4581"
     transform="translate(-110.22768,-121.26156)"><g
       id="g4583"><g
         id="g4585"><path
           class="st5"
           d="m 637.9,789 c 0,15 0,30 0,45 0,6.4 10,6.4 10,0 0,-15 0,-30 0,-45 0,-6.4 -10,-6.5 -10,0 l 0,0 z"
           id="path4587"
           inkscape:connector-curvature="0"
           style="fill:#c1272d" /></g></g><path
       class="st10"
       d="m 629.4,845.7 c 0,-7.8 6.4,-10.2 14.2,-10.2 7.8,0 14.2,2.3 14.2,10.2"
       id="path4589"
       inkscape:connector-curvature="0"
       style="fill:none;stroke:#c1272d;stroke-width:7;stroke-miterlimit:10" /><g
       id="g4591"><g
         id="g4593"><path
           class="st5"
           d="m 621.6,849.7 c 14.5,0 28.9,0 43.4,0 l 0,-5 c -14.5,0 -28.9,0 -43.4,0 l 0,5 0,0 z"
           id="path4595"
           inkscape:connector-curvature="0"
           style="fill:#c1272d" /></g></g><g
       id="g4597"><g
         id="g4599"><path
           class="st5"
           d="m 642,797 c -4,-3.9 -9.6,-7.6 -15.2,-4.4 -5,2.9 -5.6,10.1 -12.1,3.7 -2.7,-2.7 -7,1.5 -4.2,4.2 4.3,4.3 11,6.9 15.7,1.5 0.9,-1.1 1.5,-2.4 2.6,-3.4 3.2,-2.9 6.5,0.2 9,2.6 2.8,2.7 7,-1.5 4.2,-4.2 l 0,0 z"
           id="path4601"
           inkscape:connector-curvature="0"
           style="fill:#c1272d" /></g></g><g
       id="g4603"><g
         id="g4605"><path
           class="st5"
           d="m 646.8,802 c 2.3,-2.3 5.7,-5.4 8.8,-2.8 1.2,1 1.8,2.5 2.8,3.6 4.7,5.4 11.3,2.8 15.7,-1.5 2.7,-2.7 -1.5,-7 -4.2,-4.2 -6.4,6.4 -7.1,-0.8 -12.1,-3.7 -5.6,-3.2 -11.2,0.5 -15.2,4.4 -2.8,2.7 1.4,6.9 4.2,4.2 l 0,0 z"
           id="path4607"
           inkscape:connector-curvature="0"
           style="fill:#c1272d" /></g></g><g
       id="g4609"><path
         class="st11"
         d="m 629.6,819.5 c 0,4 -4.8,9.4 -10.7,9.4 -5.9,0 -10.7,-5.4 -10.7,-9.4 l 21.4,0 z"
         id="path4611"
         inkscape:connector-curvature="0"
         style="fill:#ffffff;stroke:#c1272d;stroke-width:5;stroke-miterlimit:10" /><line
         class="st12"
         x1="610.09998"
         y1="818.70001"
         x2="618.90002"
         y2="803.79999"
         id="line4613"
         style="fill:none;stroke:#c1272d;stroke-width:3;stroke-miterlimit:10" /><line
         class="st12"
         x1="618.90002"
         y1="803.79999"
         x2="627.79999"
         y2="818.70001"
         id="line4615"
         style="fill:none;stroke:#c1272d;stroke-width:3;stroke-miterlimit:10" /></g><g
       id="g4617"><path
         class="st11"
         d="m 677,819.5 c 0,4 -4.8,9.4 -10.7,9.4 -5.9,0 -10.7,-5.4 -10.7,-9.4 l 21.4,0 z"
         id="path4619"
         inkscape:connector-curvature="0"
         style="fill:#ffffff;stroke:#c1272d;stroke-width:5;stroke-miterlimit:10" /><line
         class="st12"
         x1="657.5"
         y1="818.70001"
         x2="666.29999"
         y2="803.79999"
         id="line4621"
         style="fill:none;stroke:#c1272d;stroke-width:3;stroke-miterlimit:10" /><line
         class="st12"
         x1="666.29999"
         y1="803.79999"
         x2="675.20001"
         y2="818.70001"
         id="line4623"
         style="fill:none;stroke:#c1272d;stroke-width:3;stroke-miterlimit:10" /></g></g><path
     class="st10"
     d="M 366.17232,709.63844"
     id="path4625"
     inkscape:connector-curvature="0"
     style="fill:none;stroke:#c1272d;stroke-width:7;stroke-miterlimit:10" /><g
     id="g4627"
     transform="translate(-110.22768,-121.26156)"><path
       class="st12"
       d="m 477.3,797.7 c 1.9,0.1 9.2,0.2 11.2,0.3 l 0,36.3 c 0,3.6 -0.2,5.6 -1.7,7.6 -2.2,2.3 -4.4,2.3 -8.6,2.3 -4,0 -28.5,-0.2 -39,-0.4 -0.9,0 -3.7,-0.1 -5.8,-1.6 -3.5,-2.5 -4,-5.7 -4,-7.3 l 0,0.1 c 0,0 0,1.6 0,-43.4 l 47.3,0 c -0.2,45 0,46.5 0,46.5 0.4,4.5 4.2,6.5 6.8,5.6"
       id="path4629"
       inkscape:connector-curvature="0"
       style="fill:none;stroke:#c1272d;stroke-width:3;stroke-miterlimit:10" /><g
       id="g4631"><rect
         x="435.70001"
         y="797.29999"
         class="st13"
         width="26.9"
         height="11.5"
         id="rect4633"
         style="fill:#ffffff;stroke:#c1272d;stroke-miterlimit:10" /><rect
         x="435.89999"
         y="812.90002"
         class="st13"
         width="11.5"
         height="25.200001"
         id="rect4635"
         style="fill:#ffffff;stroke:#c1272d;stroke-miterlimit:10" /><rect
         x="465.20001"
         y="827.29999"
         class="st13"
         width="7.5999999"
         height="10.8"
         id="rect4637"
         style="fill:#ffffff;stroke:#c1272d;stroke-miterlimit:10" /><g
         id="g4639"><g
           id="g4641"><path
             class="st5"
             d="m 465.6,798.9 c 2.4,0 4.8,0 7.2,0 0.6,0 0.6,-1 0,-1 -2.4,0 -4.8,0 -7.2,0 -0.6,0 -0.6,1 0,1 l 0,0 z"
             id="path4643"
             inkscape:connector-curvature="0"
             style="fill:#c1272d" /></g></g><g
         id="g4645"><g
           id="g4647"><path
             class="st5"
             d="m 465.6,801.3 c 2.4,0 4.8,0 7.2,0 0.6,0 0.6,-1 0,-1 -2.4,0 -4.8,0 -7.2,0 -0.6,0 -0.6,1 0,1 l 0,0 z"
             id="path4649"
             inkscape:connector-curvature="0"
             style="fill:#c1272d" /></g></g><g
         id="g4651"><g
           id="g4653"><path
             class="st5"
             d="m 465.6,803.7 c 2.4,0 4.8,0 7.2,0 0.6,0 0.6,-1 0,-1 -2.4,0 -4.8,0 -7.2,0 -0.6,0 -0.6,1 0,1 l 0,0 z"
             id="path4655"
             inkscape:connector-curvature="0"
             style="fill:#c1272d" /></g></g><g
         id="g4657"><g
           id="g4659"><path
             class="st5"
             d="m 465.6,806.1 c 2.4,0 4.8,0 7.2,0 0.6,0 0.6,-1 0,-1 -2.4,0 -4.8,0 -7.2,0 -0.6,0 -0.6,1 0,1 l 0,0 z"
             id="path4661"
             inkscape:connector-curvature="0"
             style="fill:#c1272d" /></g></g><g
         id="g4663"><g
           id="g4665"><path
             class="st5"
             d="m 465.6,808.5 c 2.4,0 4.8,0 7.2,0 0.6,0 0.6,-1 0,-1 -2.4,0 -4.8,0 -7.2,0 -0.6,0 -0.6,1 0,1 l 0,0 z"
             id="path4667"
             inkscape:connector-curvature="0"
             style="fill:#c1272d" /></g></g><g
         id="g4669"><g
           id="g4671"><path
             class="st5"
             d="m 450.3,814.1 c 7.2,0 14.5,0 21.7,0 0.6,0 0.6,-1 0,-1 -7.2,0 -14.5,0 -21.7,0 -0.6,0 -0.6,1 0,1 l 0,0 z"
             id="path4673"
             inkscape:connector-curvature="0"
             style="fill:#c1272d" /></g></g><g
         id="g4675"><g
           id="g4677"><path
             class="st5"
             d="m 450.3,816.5 c 7.2,0 14.5,0 21.7,0 0.6,0 0.6,-1 0,-1 -7.2,0 -14.5,0 -21.7,0 -0.6,0 -0.6,1 0,1 l 0,0 z"
             id="path4679"
             inkscape:connector-curvature="0"
             style="fill:#c1272d" /></g></g><g
         id="g4681"><g
           id="g4683"><path
             class="st5"
             d="m 450.3,819 c 7.2,0 14.5,0 21.7,0 0.6,0 0.6,-1 0,-1 -7.2,0 -14.5,0 -21.7,0 -0.6,0 -0.6,1 0,1 l 0,0 z"
             id="path4685"
             inkscape:connector-curvature="0"
             style="fill:#c1272d" /></g></g><g
         id="g4687"><g
           id="g4689"><path
             class="st5"
             d="m 450.3,821.4 c 7.2,0 14.5,0 21.7,0 0.6,0 0.6,-1 0,-1 -7.2,0 -14.5,0 -21.7,0 -0.6,0 -0.6,1 0,1 l 0,0 z"
             id="path4691"
             inkscape:connector-curvature="0"
             style="fill:#c1272d" /></g></g><g
         id="g4693"><g
           id="g4695"><path
             class="st5"
             d="m 450.3,823.8 c 7.2,0 14.5,0 21.7,0 0.6,0 0.6,-1 0,-1 -7.2,0 -14.5,0 -21.7,0 -0.6,0 -0.6,1 0,1 l 0,0 z"
             id="path4697"
             inkscape:connector-curvature="0"
             style="fill:#c1272d" /></g></g><g
         id="g4699"><g
           id="g4701"><path
             class="st5"
             d="m 450.3,826.2 c 7.2,0 14.5,0 21.7,0 0.6,0 0.6,-1 0,-1 -7.2,0 -14.5,0 -21.7,0 -0.6,0 -0.6,1 0,1 l 0,0 z"
             id="path4703"
             inkscape:connector-curvature="0"
             style="fill:#c1272d" /></g></g><g
         id="g4705"><g
           id="g4707"><path
             class="st5"
             d="m 450.3,828.6 c 4.6,0 9.1,0 13.7,0 0.6,0 0.6,-1 0,-1 -4.5,0 -9.1,0 -13.7,0 -0.6,0 -0.6,1 0,1 l 0,0 z"
             id="path4709"
             inkscape:connector-curvature="0"
             style="fill:#c1272d" /></g></g><g
         id="g4711"><g
           id="g4713"><path
             class="st5"
             d="m 450.3,831 c 4.6,0 9.1,0 13.7,0 0.6,0 0.6,-1 0,-1 -4.5,0 -9.1,0 -13.7,0 -0.6,0 -0.6,1 0,1 l 0,0 z"
             id="path4715"
             inkscape:connector-curvature="0"
             style="fill:#c1272d" /></g></g><g
         id="g4717"><g
           id="g4719"><path
             class="st5"
             d="m 450.3,833.4 c 4.6,0 9.1,0 13.7,0 0.6,0 0.6,-1 0,-1 -4.5,0 -9.1,0 -13.7,0 -0.6,0 -0.6,1 0,1 l 0,0 z"
             id="path4721"
             inkscape:connector-curvature="0"
             style="fill:#c1272d" /></g></g><g
         id="g4723"><g
           id="g4725"><path
             class="st5"
             d="m 450.3,835.8 c 4.6,0 9.1,0 13.7,0 0.6,0 0.6,-1 0,-1 -4.5,0 -9.1,0 -13.7,0 -0.6,0 -0.6,1 0,1 l 0,0 z"
             id="path4727"
             inkscape:connector-curvature="0"
             style="fill:#c1272d" /></g></g><g
         id="g4729"><g
           id="g4731"><path
             class="st5"
             d="m 450.3,838.2 c 4.6,0 9.1,0 13.7,0 0.6,0 0.6,-1 0,-1 -4.5,0 -9.1,0 -13.7,0 -0.6,0 -0.6,1 0,1 l 0,0 z"
             id="path4733"
             inkscape:connector-curvature="0"
             style="fill:#c1272d" /></g></g></g></g><text
     class="st6 st7"
     id="text4735"
     style="font-size:9.63529968px;font-family:GeosansLight"
     x="554.88464"
     y="467.00043">Bannit l’utilisateur</text>
<g
     id="g4737"
     transform="translate(-110.22768,-121.26156)"><g
       id="g4739"><g
         id="g4741"><path
           class="st4"
           d="m 507.2,822.9 c 0,0 1.2,1.6 3.1,4.1 1.9,2.4 4.8,5.6 8,8.6 3.2,3 6.8,5.7 9.6,7.7 1.4,1 2.6,1.7 3.5,2.3 0.9,0.5 1.3,0.8 1.3,0.8 0,0 -0.7,-0.8 -1.8,-2.1 -1.1,-1.2 -2.4,-2.9 -3.7,-4.6 -2.6,-3.4 -4.7,-6.9 -4.7,-6.9 0,0 0.3,0.1 0.9,0.3 0.6,0.2 1.4,0.4 2.4,0.7 2.1,0.6 5.1,1.2 8.8,1.8 7.3,1.1 17.2,1.6 27,0.3 9.7,-1.2 19.1,-4 25.8,-6.9 3.4,-1.4 6.1,-2.8 7.9,-3.7 0.9,-0.5 1.7,-0.9 2.2,-1.2 0.5,-0.3 0.8,-0.4 0.8,-0.4 0,0 -0.3,0.1 -0.8,0.4 -0.5,0.2 -1.3,0.6 -2.2,1 -1.9,0.9 -4.7,2 -8.1,3.2 -6.8,2.4 -16.2,4.6 -25.8,5.1 -9.5,0.6 -19.1,-0.5 -25.9,-2 -3.4,-0.8 -6.3,-1.6 -8.2,-2.3 -1,-0.3 -1.7,-0.6 -2.2,-0.8 -0.5,-0.2 -0.8,-0.3 -0.8,-0.3 0,0 3.7,-1.5 7,-3.4 1.7,-1 3.3,-1.9 4.4,-2.7 1.1,-0.8 1.9,-1.3 1.9,-1.3 0,0 -0.4,0.1 -1.2,0.3 -0.8,0.2 -1.9,0.5 -3.2,0.8 -2.7,0.6 -6.3,1.3 -10.1,1.6 -3.8,0.3 -7.7,0.2 -10.7,0 -3.1,-0.2 -5.2,-0.4 -5.2,-0.4 z"
           id="path4743"
           inkscape:connector-curvature="0"
           style="fill:#ef7378" /></g></g></g><text
     class="st6 st7"
     id="text4745"
     style="font-size:9.63529968px;font-family:GeosansLight"
     x="79.924721"
     y="708.50214">À l’origine de l’article et des commentaires</text>
<g
     id="g4747"
     transform="translate(-110.22768,-121.26156)"><g
       id="g4749"><path
         class="st14"
         d="m 710.8,634.6 c 2.7,3 6.7,4.9 12.2,6.6 7,2.2 15.3,2.2 15.3,2.2 0,0 1.2,16.9 -11.9,35.4 -6.8,9.6 -10.7,11.2 -16,16 l 0,0 c -5.3,-4.8 -8.3,-6.4 -15.1,-16 -13,-18.5 -11.9,-35.3 -11.9,-35.3 0,0 8.3,-0.1 15.3,-2.3 5.6,-1.7 9.5,-3.7 12.1,-6.6 l 0,0 z"
         id="path4751"
         inkscape:connector-curvature="0"
         style="fill:none;stroke:#c1272d;stroke-width:5;stroke-miterlimit:10" /><g
         id="g4753"><g
           id="g4755"><g
             id="g4757"><path
               class="st5"
               d="m 692.3,650.3 c 1.6,1.8 3.2,3.6 4.7,5.4 1.3,1.5 3.4,-0.7 2.1,-2.1 -1.6,-1.8 -3.2,-3.6 -4.7,-5.4 -1.2,-1.5 -3.4,0.6 -2.1,2.1 l 0,0 z"
               id="path4759"
               inkscape:connector-curvature="0"
               style="fill:#c1272d" /></g></g><g
           id="g4761"><g
             id="g4763"><path
               class="st5"
               d="m 701.1,644.9 c 1,1.8 2,3.7 3,5.5 0.9,1.7 3.5,0.2 2.6,-1.5 -1,-1.8 -2,-3.7 -3,-5.5 -0.9,-1.7 -3.5,-0.2 -2.6,1.5 l 0,0 z"
               id="path4765"
               inkscape:connector-curvature="0"
               style="fill:#c1272d" /></g></g><g
           id="g4767"><g
             id="g4769"><path
               class="st5"
               d="m 727.6,648.1 c -1.6,1.8 -3.2,3.6 -4.7,5.4 -1.3,1.4 0.8,3.6 2.1,2.1 1.6,-1.8 3.2,-3.6 4.7,-5.4 1.3,-1.4 -0.8,-3.5 -2.1,-2.1 l 0,0 z"
               id="path4771"
               inkscape:connector-curvature="0"
               style="fill:#c1272d" /></g></g><g
           id="g4773"><g
             id="g4775"><path
               class="st5"
               d="m 718.4,643.4 c -1,1.8 -2,3.7 -3,5.5 -0.9,1.7 1.7,3.2 2.6,1.5 1,-1.8 2,-3.7 3,-5.5 0.9,-1.7 -1.7,-3.2 -2.6,-1.5 l 0,0 z"
               id="path4777"
               inkscape:connector-curvature="0"
               style="fill:#c1272d" /></g></g><g
           id="g4779"><path
             class="st15"
             d="m 722.5,660.4 c 0,-4.9 -5,-8.9 -11.2,-8.9 -6.2,0 -11.2,3.9 -11.2,8.8 l -0.1,10.8 22.6,0 -0.1,-10.7 z"
             id="path4781"
             inkscape:connector-curvature="0"
             style="fill:none;stroke:#c1272d;stroke-width:2;stroke-miterlimit:10" /><g
             id="g4783"><path
               class="st16"
               d="m 706,658.5 c 0,-3 3.4,-6.5 7.7,-6.5 4.2,0 7.7,3.5 7.7,6.5 l -15.4,0 z"
               id="path4785"
               inkscape:connector-curvature="0"
               style="fill:#c1272d;stroke:#c1272d;stroke-miterlimit:10" /><rect
               x="706"
               y="658.20001"
               class="st16"
               width="16"
               height="12.6"
               id="rect4787"
               style="fill:#c1272d;stroke:#c1272d;stroke-miterlimit:10" /></g></g></g></g><line
       class="st15"
       x1="699"
       y1="674"
       x2="723"
       y2="674"
       id="line4789"
       style="fill:none;stroke:#c1272d;stroke-width:2;stroke-miterlimit:10" /></g><text
     class="st6 st7"
     id="text4791"
     style="font-size:9.63529968px;font-family:GeosansLight"
     x="480.01102"
     y="629.79883">Charte de modération</text>
<text
     class="st6 st7"
     id="text4793"
     style="font-size:9.63529968px;font-family:GeosansLight"
     x="657.98236"
     y="551.26776">Valide ou supprime les commentaires sur le site</text>
<polygon
     class="st4"
     points="663.7,679.6 641.2,710.2 645.3,695.7 500.7,791.8 642.8,692.7 627.9,694.5 "
     id="polygon4795"
     style="fill:#ef7378"
     transform="translate(-110.22768,-121.26156)" /><g
     id="g4797"
     transform="translate(-110.22768,-121.26156)"><path
       class="st21"
       d="m 355.6,854.3 c 0,-3.5 0,-7.1 0,-10.6 0,-0.4 0.1,-0.5 0.5,-0.5 1.8,0.1 3.6,-0.1 5.4,0.1 1.6,0.2 3.1,0.7 4.1,2.1 0.8,1.2 1.1,2.6 1.1,4 0,1.6 -0.3,3.1 -1.2,4.4 -0.2,0.3 -0.5,0.6 -0.8,0.8 -0.3,0.2 -0.3,0.4 -0.2,0.7 0.7,3.2 1.5,6.4 2.2,9.6 0.1,0.4 0,0.5 -0.4,0.5 -1.1,0 -2.1,0 -3.2,0 -0.3,0 -0.4,-0.1 -0.5,-0.4 -0.6,-2.9 -1.2,-5.8 -1.7,-8.8 -0.1,-0.4 -0.6,-0.6 -1,-0.4 -0.2,0.1 -0.1,0.3 -0.1,0.4 0,2.9 0,5.7 0,8.6 0,0.4 -0.1,0.5 -0.5,0.5 -1,0 -2.1,0 -3.1,0 -0.3,0 -0.4,-0.1 -0.4,-0.4 -0.2,-3.5 -0.2,-7 -0.2,-10.6 z m 6.9,-5 c 0,-0.3 0,-0.7 -0.1,-1.1 -0.3,-1.4 -1.1,-2 -2.5,-1.8 -0.2,0 -0.3,0.1 -0.3,0.3 0,1.9 0,3.8 0,5.7 0,0.1 0,0.2 0.2,0.3 1,0.2 1.9,-0.2 2.3,-1.2 0.3,-0.7 0.4,-1.3 0.4,-2.2 z"
       id="path4799"
       inkscape:connector-curvature="0"
       style="fill:#030303" /><path
       class="st22"
       d="m 397.3,848.1 c 0,1.9 -0.7,3.5 -2.3,4.7 -0.4,0.3 -0.4,0.5 0,0.8 1,1 1.8,2 2.4,3.3 1.2,2.5 0.7,5.7 -1.2,7.4 -1.7,1.5 -3.7,1.7 -5.8,1 -2,-0.7 -2.9,-2.3 -3.2,-4.4 -0.3,-2.5 0.7,-4.4 2.6,-5.9 0.1,-0.1 0.2,-0.1 0.2,-0.2 0.2,-0.2 0.3,-0.3 0,-0.6 -2,-2.2 -2.8,-4.6 -2,-7.6 0.6,-2.4 2.5,-3.8 4.9,-3.8 2.1,0 3.9,1.5 4.4,3.8 0,0.6 0,1 0,1.5 z m -6.8,12 c 0,0.6 0,1.1 0.2,1.6 0.4,1.1 1.6,1.5 2.6,0.9 0.4,-0.3 0.7,-0.6 0.8,-1.1 0.3,-1.1 0.2,-2.1 -0.3,-3.1 -0.4,-0.8 -1.1,-1.5 -1.8,-2.1 -0.2,-0.2 -0.4,-0.2 -0.5,0.1 -0.6,1.1 -0.9,2.4 -1,3.7 z m 3.8,-11.9 c 0,-0.4 0,-0.8 -0.2,-1.2 -0.2,-0.6 -0.6,-1 -1.2,-1.1 -1,-0.2 -1.8,0.6 -1.8,1.7 0,1.5 0.6,2.7 1.7,3.8 0.2,0.2 0.3,0.2 0.4,0 0.6,-1 1.1,-2 1.1,-3.2 z"
       id="path4801"
       inkscape:connector-curvature="0"
       style="fill:#f70505" /><path
       class="st22"
       d="m 404.7,855.5 c -0.6,0.9 -1.4,1.4 -2.4,1.5 -1.5,0.1 -2.8,-0.7 -3.5,-2.2 -0.8,-1.9 -0.8,-3.8 -0.6,-5.8 0.1,-1.4 0.5,-2.7 1.3,-3.9 1.1,-1.6 2.5,-2.4 4.5,-2.2 1.8,0.2 3,1.3 3.7,2.9 0.7,1.6 0.9,3.3 1,5 0.2,3.2 0.1,6.4 -0.6,9.6 -0.3,1.1 -0.7,2.2 -1.4,3.2 -1.1,1.5 -2.5,2.2 -4.4,2 -1.8,-0.2 -2.8,-1.4 -3.4,-3 -0.3,-0.8 -0.4,-1.5 -0.5,-2.3 0,-0.3 0,-0.4 0.3,-0.4 0.9,-0.1 1.8,-0.1 2.7,-0.2 0.3,0 0.4,0.1 0.5,0.4 0,0.6 0.1,1.2 0.2,1.8 0.1,0.4 0.3,0.8 0.8,0.9 0.5,0.1 0.8,-0.3 1.1,-0.7 0.3,-0.7 0.4,-1.4 0.5,-2.2 0.1,-1.3 0.2,-2.7 0.3,-4 0,-0.2 -0.1,-0.2 -0.1,-0.4 z m 0,-4.7 c 0,0 -0.1,0 0,0 -0.1,-0.8 0,-1.5 -0.1,-2.3 0,-0.7 -0.1,-1.5 -0.5,-2.1 -0.4,-0.7 -1.3,-0.7 -1.6,0 -0.1,0.2 -0.2,0.4 -0.2,0.6 -0.3,1.8 -0.3,3.7 0,5.5 0.1,0.4 0.2,0.8 0.5,1.1 0.3,0.3 0.8,0.4 1.3,0.2 0.4,-0.2 0.7,-0.4 0.6,-1 0,-0.6 0,-1.3 0,-2 z"
       id="path4803"
       inkscape:connector-curvature="0"
       style="fill:#f70505" /><path
       class="st21"
       d="m 372.9,863.9 c -0.6,0.5 -1,1 -1.6,1.3 -2,1.2 -4,0.2 -4.3,-2.1 0,-0.2 0,-0.5 0,-0.7 0,-4.1 0,-8.1 0,-12.2 0,-0.4 0.1,-0.5 0.4,-0.5 0.9,0 1.8,0 2.7,0 0.4,0 0.5,0.1 0.5,0.5 0,3.6 0,7.2 0,10.7 0,0.3 0,0.6 0.1,0.9 0.2,0.6 0.5,0.9 1.1,0.8 0.7,-0.1 1.1,-0.5 1.1,-1.1 0,-3.8 0,-7.6 0,-11.4 0,-0.4 0.1,-0.5 0.5,-0.5 0.9,0 1.8,0 2.7,0 0.3,0 0.4,0.1 0.4,0.4 0,5 0,10 0,14.9 0,0.3 -0.1,0.4 -0.4,0.4 -1,0 -2,0 -2.9,0 -0.3,0 -0.3,-0.1 -0.3,-0.3 0,-0.2 0,-0.6 0,-1.1 z"
       id="path4805"
       inkscape:connector-curvature="0"
       style="fill:#030303" /><path
       class="st21"
       d="m 383.8,858.7 c -0.8,0 -1.7,0 -2.5,0 -0.3,0 -0.4,0.1 -0.4,0.4 0,0.8 0,1.6 0.2,2.4 0.2,0.5 0.4,1.1 1.1,1.1 0.7,0.1 1.2,-0.2 1.5,-0.8 0.2,-0.3 0.3,-0.7 0.4,-1 0.1,-0.2 0.1,-0.3 0.4,-0.2 0.6,0.2 1.3,0.4 2,0.6 0.2,0.1 0.3,0.1 0.2,0.3 -0.4,1.7 -1,3.1 -2.7,3.8 -1.6,0.7 -3.2,0.6 -4.7,-0.5 -0.9,-0.7 -1.4,-1.6 -1.7,-2.7 -0.8,-3 -0.9,-6.1 0,-9.1 0.4,-1.3 1.1,-2.5 2.4,-3.1 2,-1 4.2,-0.4 5.4,1.6 0.9,1.5 1.2,3.2 1.3,5 0,0.6 0,1.2 0,1.9 0,0.4 -0.1,0.4 -0.4,0.4 -0.9,-0.1 -1.7,-0.1 -2.5,-0.1 z m -1.7,-2.8 c 0.3,0 0.6,0 0.9,0 0.2,0 0.3,0 0.3,-0.2 0,-0.9 0,-1.8 -0.3,-2.6 -0.2,-0.5 -0.4,-0.8 -1,-0.7 -0.5,0 -0.8,0.4 -0.9,0.8 -0.2,0.5 -0.2,1.1 -0.2,1.6 0,1.1 0,1.1 1.2,1.1 -0.1,0 -0.1,0 0,0 z"
       id="path4807"
       inkscape:connector-curvature="0"
       style="fill:#030303" /><path
       class="st23"
       d="m 362.5,849.3 c 0,0.8 -0.1,1.5 -0.4,2.1 -0.4,0.9 -1.3,1.4 -2.3,1.2 -0.2,0 -0.2,-0.1 -0.2,-0.3 0,-1.9 0,-3.8 0,-5.7 0,-0.2 0.1,-0.2 0.3,-0.3 1.4,-0.2 2.2,0.4 2.5,1.8 0.1,0.6 0.1,1 0.1,1.2 z"
       id="path4809"
       inkscape:connector-curvature="0"
       style="fill:#fdfdfd" /><path
       class="st23"
       d="m 390.5,860.1 c 0,-1.3 0.4,-2.5 1,-3.7 0.2,-0.3 0.3,-0.3 0.5,-0.1 0.7,0.7 1.3,1.3 1.8,2.1 0.5,1 0.6,2 0.3,3.1 -0.1,0.4 -0.4,0.8 -0.8,1.1 -1,0.6 -2.2,0.2 -2.6,-0.9 -0.1,-0.5 -0.2,-1.1 -0.2,-1.6 z"
       id="path4811"
       inkscape:connector-curvature="0"
       style="fill:#fdfdfd" /><path
       class="st23"
       d="m 394.3,848.2 c 0,1.2 -0.5,2.2 -1.1,3.2 -0.1,0.2 -0.3,0.2 -0.4,0 -1.1,-1 -1.7,-2.3 -1.7,-3.8 0,-1.2 0.8,-1.9 1.8,-1.7 0.6,0.1 1,0.5 1.2,1.1 0.2,0.4 0.2,0.8 0.2,1.2 z"
       id="path4813"
       inkscape:connector-curvature="0"
       style="fill:#fdfdfd" /><path
       class="st23"
       d="m 404.7,850.8 c 0,0.7 0,1.4 0,2.1 0,0.5 -0.2,0.8 -0.6,1 -0.5,0.2 -1,0.1 -1.3,-0.2 -0.3,-0.3 -0.5,-0.7 -0.5,-1.1 -0.3,-1.8 -0.3,-3.7 0,-5.5 0,-0.2 0.1,-0.4 0.2,-0.6 0.4,-0.7 1.2,-0.7 1.6,0 0.4,0.6 0.5,1.4 0.5,2.1 0,0.7 0,1.5 0.1,2.2 -0.1,0 0,0 0,0 z"
       id="path4815"
       inkscape:connector-curvature="0"
       style="fill:#fdfdfd" /><path
       class="st23"
       d="m 382.1,855.9 c -0.1,0 -0.1,0 0,0 -1.2,0 -1.2,0 -1.2,-1.2 0,-0.5 0,-1.1 0.2,-1.6 0.1,-0.4 0.3,-0.8 0.9,-0.8 0.5,0 0.8,0.3 1,0.7 0.3,0.8 0.3,1.7 0.3,2.6 0,0.2 -0.1,0.2 -0.3,0.2 -0.4,0.1 -0.6,0.1 -0.9,0.1 z"
       id="path4817"
       inkscape:connector-curvature="0"
       style="fill:#fdfdfd" /></g><g
     id="g4819"
     transform="translate(-110.22768,-121.26156)"><path
       class="st21"
       d="m 914.6,691.3 c 0,-3.5 0,-7.1 0,-10.6 0,-0.4 0.1,-0.5 0.5,-0.5 1.8,0.1 3.6,-0.1 5.4,0.1 1.6,0.2 3.1,0.7 4.1,2.1 0.8,1.2 1.1,2.6 1.1,4 0,1.6 -0.3,3.1 -1.2,4.4 -0.2,0.3 -0.5,0.6 -0.8,0.8 -0.3,0.2 -0.3,0.4 -0.2,0.7 0.7,3.2 1.5,6.4 2.2,9.6 0.1,0.4 0,0.5 -0.4,0.5 -1.1,0 -2.1,0 -3.2,0 -0.3,0 -0.4,-0.1 -0.5,-0.4 -0.6,-2.9 -1.2,-5.8 -1.7,-8.8 -0.1,-0.4 -0.6,-0.6 -1,-0.4 -0.2,0.1 -0.1,0.3 -0.1,0.4 0,2.9 0,5.7 0,8.6 0,0.4 -0.1,0.5 -0.5,0.5 -1,0 -2.1,0 -3.1,0 -0.3,0 -0.4,-0.1 -0.4,-0.4 -0.2,-3.5 -0.2,-7 -0.2,-10.6 z m 6.9,-5 c 0,-0.3 0,-0.7 -0.1,-1.1 -0.3,-1.4 -1.1,-2 -2.5,-1.8 -0.2,0 -0.3,0.1 -0.3,0.3 0,1.9 0,3.8 0,5.7 0,0.1 0,0.2 0.2,0.3 1,0.2 1.9,-0.2 2.3,-1.2 0.3,-0.7 0.4,-1.3 0.4,-2.2 z"
       id="path4821"
       inkscape:connector-curvature="0"
       style="fill:#030303" /><path
       class="st22"
       d="m 956.3,685.1 c 0,1.9 -0.7,3.5 -2.3,4.7 -0.4,0.3 -0.4,0.5 0,0.8 1,1 1.8,2 2.4,3.3 1.2,2.5 0.7,5.7 -1.2,7.4 -1.7,1.5 -3.7,1.7 -5.8,1 -2,-0.7 -2.9,-2.3 -3.2,-4.4 -0.3,-2.5 0.7,-4.4 2.6,-5.9 0.1,-0.1 0.2,-0.1 0.2,-0.2 0.2,-0.2 0.3,-0.3 0,-0.6 -2,-2.2 -2.8,-4.6 -2,-7.6 0.6,-2.4 2.5,-3.8 4.9,-3.8 2.1,0 3.9,1.5 4.4,3.8 0,0.6 0,1 0,1.5 z m -6.8,12 c 0,0.6 0,1.1 0.2,1.6 0.4,1.1 1.6,1.5 2.6,0.9 0.4,-0.3 0.7,-0.6 0.8,-1.1 0.3,-1.1 0.2,-2.1 -0.3,-3.1 -0.4,-0.8 -1.1,-1.5 -1.8,-2.1 -0.2,-0.2 -0.4,-0.2 -0.5,0.1 -0.6,1.1 -0.9,2.4 -1,3.7 z m 3.8,-11.9 c 0,-0.4 0,-0.8 -0.2,-1.2 -0.2,-0.6 -0.6,-1 -1.2,-1.1 -1,-0.2 -1.8,0.6 -1.8,1.7 0,1.5 0.6,2.7 1.7,3.8 0.2,0.2 0.3,0.2 0.4,0 0.6,-1 1.1,-2 1.1,-3.2 z"
       id="path4823"
       inkscape:connector-curvature="0"
       style="fill:#f70505" /><path
       class="st22"
       d="m 963.7,692.5 c -0.6,0.9 -1.4,1.4 -2.4,1.5 -1.5,0.1 -2.8,-0.7 -3.5,-2.2 -0.8,-1.9 -0.8,-3.8 -0.6,-5.8 0.1,-1.4 0.5,-2.7 1.3,-3.9 1.1,-1.6 2.5,-2.4 4.5,-2.2 1.8,0.2 3,1.3 3.7,2.9 0.7,1.6 0.9,3.3 1,5 0.2,3.2 0.1,6.4 -0.6,9.6 -0.3,1.1 -0.7,2.2 -1.4,3.2 -1.1,1.5 -2.5,2.2 -4.4,2 -1.8,-0.2 -2.8,-1.4 -3.4,-3 -0.3,-0.8 -0.4,-1.5 -0.5,-2.3 0,-0.3 0,-0.4 0.3,-0.4 0.9,-0.1 1.8,-0.1 2.7,-0.2 0.3,0 0.4,0.1 0.5,0.4 0,0.6 0.1,1.2 0.2,1.8 0.1,0.4 0.3,0.8 0.8,0.9 0.5,0.1 0.8,-0.3 1.1,-0.7 0.3,-0.7 0.4,-1.4 0.5,-2.2 0.1,-1.3 0.2,-2.7 0.3,-4 0,-0.2 -0.1,-0.2 -0.1,-0.4 z m 0,-4.7 c 0,0 -0.1,0 0,0 -0.1,-0.8 0,-1.5 -0.1,-2.3 0,-0.7 -0.1,-1.5 -0.5,-2.1 -0.4,-0.7 -1.3,-0.7 -1.6,0 -0.1,0.2 -0.2,0.4 -0.2,0.6 -0.3,1.8 -0.3,3.7 0,5.5 0.1,0.4 0.2,0.8 0.5,1.1 0.3,0.3 0.8,0.4 1.3,0.2 0.4,-0.2 0.7,-0.4 0.6,-1 0,-0.6 0,-1.3 0,-2 z"
       id="path4825"
       inkscape:connector-curvature="0"
       style="fill:#f70505" /><path
       class="st21"
       d="m 931.9,700.9 c -0.6,0.5 -1,1 -1.6,1.3 -2,1.2 -4,0.2 -4.3,-2.1 0,-0.2 0,-0.5 0,-0.7 0,-4.1 0,-8.1 0,-12.2 0,-0.4 0.1,-0.5 0.4,-0.5 0.9,0 1.8,0 2.7,0 0.4,0 0.5,0.1 0.5,0.5 0,3.6 0,7.2 0,10.7 0,0.3 0,0.6 0.1,0.9 0.2,0.6 0.5,0.9 1.1,0.8 0.7,-0.1 1.1,-0.5 1.1,-1.1 0,-3.8 0,-7.6 0,-11.4 0,-0.4 0.1,-0.5 0.5,-0.5 0.9,0 1.8,0 2.7,0 0.3,0 0.4,0.1 0.4,0.4 0,5 0,10 0,14.9 0,0.3 -0.1,0.4 -0.4,0.4 -1,0 -2,0 -2.9,0 -0.3,0 -0.3,-0.1 -0.3,-0.3 0,-0.2 0,-0.6 0,-1.1 z"
       id="path4827"
       inkscape:connector-curvature="0"
       style="fill:#030303" /><path
       class="st21"
       d="m 942.8,695.7 c -0.8,0 -1.7,0 -2.5,0 -0.3,0 -0.4,0.1 -0.4,0.4 0,0.8 0,1.6 0.2,2.4 0.2,0.5 0.4,1.1 1.1,1.1 0.7,0.1 1.2,-0.2 1.5,-0.8 0.2,-0.3 0.3,-0.7 0.4,-1 0.1,-0.2 0.1,-0.3 0.4,-0.2 0.6,0.2 1.3,0.4 2,0.6 0.2,0.1 0.3,0.1 0.2,0.3 -0.4,1.7 -1,3.1 -2.7,3.8 -1.6,0.7 -3.2,0.6 -4.7,-0.5 -0.9,-0.7 -1.4,-1.6 -1.7,-2.7 -0.8,-3 -0.9,-6.1 0,-9.1 0.4,-1.3 1.1,-2.5 2.4,-3.1 2,-1 4.2,-0.4 5.4,1.6 0.9,1.5 1.2,3.2 1.3,5 0,0.6 0,1.2 0,1.9 0,0.4 -0.1,0.4 -0.4,0.4 -0.9,-0.1 -1.7,-0.1 -2.5,-0.1 z m -1.7,-2.8 c 0.3,0 0.6,0 0.9,0 0.2,0 0.3,0 0.3,-0.2 0,-0.9 0,-1.8 -0.3,-2.6 -0.2,-0.5 -0.4,-0.8 -1,-0.7 -0.5,0 -0.8,0.4 -0.9,0.8 -0.2,0.5 -0.2,1.1 -0.2,1.6 0,1.1 0,1.1 1.2,1.1 -0.1,0 -0.1,0 0,0 z"
       id="path4829"
       inkscape:connector-curvature="0"
       style="fill:#030303" /><path
       class="st23"
       d="m 921.5,686.3 c 0,0.8 -0.1,1.5 -0.4,2.1 -0.4,0.9 -1.3,1.4 -2.3,1.2 -0.2,0 -0.2,-0.1 -0.2,-0.3 0,-1.9 0,-3.8 0,-5.7 0,-0.2 0.1,-0.2 0.3,-0.3 1.4,-0.2 2.2,0.4 2.5,1.8 0.1,0.6 0.1,1 0.1,1.2 z"
       id="path4831"
       inkscape:connector-curvature="0"
       style="fill:#fdfdfd" /><path
       class="st23"
       d="m 949.5,697.1 c 0,-1.3 0.4,-2.5 1,-3.7 0.2,-0.3 0.3,-0.3 0.5,-0.1 0.7,0.7 1.3,1.3 1.8,2.1 0.5,1 0.6,2 0.3,3.1 -0.1,0.4 -0.4,0.8 -0.8,1.1 -1,0.6 -2.2,0.2 -2.6,-0.9 -0.1,-0.5 -0.2,-1.1 -0.2,-1.6 z"
       id="path4833"
       inkscape:connector-curvature="0"
       style="fill:#fdfdfd" /><path
       class="st23"
       d="m 953.3,685.2 c 0,1.2 -0.5,2.2 -1.1,3.2 -0.1,0.2 -0.3,0.2 -0.4,0 -1.1,-1 -1.7,-2.3 -1.7,-3.8 0,-1.2 0.8,-1.9 1.8,-1.7 0.6,0.1 1,0.5 1.2,1.1 0.2,0.4 0.2,0.8 0.2,1.2 z"
       id="path4835"
       inkscape:connector-curvature="0"
       style="fill:#fdfdfd" /><path
       class="st23"
       d="m 963.7,687.8 c 0,0.7 0,1.4 0,2.1 0,0.5 -0.2,0.8 -0.6,1 -0.5,0.2 -1,0.1 -1.3,-0.2 -0.3,-0.3 -0.5,-0.7 -0.5,-1.1 -0.3,-1.8 -0.3,-3.7 0,-5.5 0,-0.2 0.1,-0.4 0.2,-0.6 0.4,-0.7 1.2,-0.7 1.6,0 0.4,0.6 0.5,1.4 0.5,2.1 0,0.7 0,1.5 0.1,2.2 -0.1,0 0,0 0,0 z"
       id="path4837"
       inkscape:connector-curvature="0"
       style="fill:#fdfdfd" /><path
       class="st23"
       d="m 941.1,692.9 c -0.1,0 -0.1,0 0,0 -1.2,0 -1.2,0 -1.2,-1.2 0,-0.5 0,-1.1 0.2,-1.6 0.1,-0.4 0.3,-0.8 0.9,-0.8 0.5,0 0.8,0.3 1,0.7 0.3,0.8 0.3,1.7 0.3,2.6 0,0.2 -0.1,0.2 -0.3,0.2 -0.4,0.1 -0.6,0.1 -0.9,0.1 z"
       id="path4839"
       inkscape:connector-curvature="0"
       style="fill:#fdfdfd" /></g><text
     transform="matrix(0.99999898,-0.00143,0.00143,0.99999898,0,0)"
     class="st6 st7"
     id="text4841"
     style="font-size:9.63529968px;font-family:GeosansLight"
     x="359.67551"
     y="568.0321">Echange avec</text>
<text
     transform="matrix(0.99999898,-0.00143,0.00143,0.99999898,0,0)"
     class="st6 st7"
     id="text4843"
     style="font-size:9.63529968px;font-family:GeosansLight"
     x="362.9953"
     y="579.63208">le journaliste</text>
<g
     id="g4845"
     transform="translate(-110.22768,-121.26156)"><path
       class="st24"
       d="m 901.2,689 c -2.3,4.8 -6.7,6 -11.4,6.1 -2.8,0 -5.5,-0.3 -8.2,1.5 1.1,-2.2 0.4,-3.4 -1.3,-4.7 -4.1,-3.1 -4.4,-9.2 1.1,-12.5 2,1 3.6,-0.5 5.3,-0.9 6.2,-1.1 12.5,3 13.4,9.1 0.3,0.7 0.5,1.2 1.1,1.4 z m -10.9,2.1 0,0 c 1.7,0 3.5,0 5.2,0 0.5,0 1,-0.1 1,-0.8 -0.1,-0.4 -0.5,-0.6 -0.9,-0.6 -3.6,0 -7.2,0 -10.8,0 -0.5,0 -1,0.1 -0.9,0.8 0.1,0.6 0.7,0.6 1.1,0.6 1.8,0 3.6,0 5.3,0 z m 6.1,-3.1 c 0,-0.2 0,-0.4 0,-0.6 -4.1,0 -8.3,0 -12.4,0 0,0.2 0,0.4 0,0.6 4.2,0 8.3,0 12.4,0 z M 884,681.9 c 2.6,0.7 5.3,0.8 7.9,-0.1 -2.7,-0.5 -5.3,-0.7 -7.9,0.1 z m 7.9,3.2 c 0,-0.3 0,-0.6 0,-0.9 -2.7,0 -5.3,-0.3 -8,0.1 0,0.3 0,0.5 0,0.8 2.7,0 5.4,0 8,0 z"
       id="path4847"
       inkscape:connector-curvature="0"
       style="fill:#6e696b" /><path
       class="st24"
       d="m 801,694.7 c -1.7,0 -3.3,0.1 -5,0 -1.8,-0.1 -1.9,0.7 -1.4,2.1 1.2,3.6 5.4,5 9.5,3.1 0.9,-0.4 1.8,-1.7 2.8,0.1 1,1.8 -0.5,2.3 -1.5,2.8 -3.8,1.8 -7.6,1.8 -11.1,-0.7 -3.4,-2.5 -4.5,-6 -3.8,-10.1 0.7,-3.9 3,-6.4 6.9,-7.5 5.5,-1.5 10.2,2.1 10.4,7.8 0.1,1.7 -0.3,2.5 -2.2,2.4 -1.5,-0.1 -3,0 -4.6,0 z m -1.6,-2.7 c 0.9,0 1.7,0 2.6,0 0.7,-0.1 1.7,0.4 2.1,-0.5 0.4,-0.9 -0.2,-1.7 -0.7,-2.4 -1.5,-2.1 -4.8,-2.4 -7,-0.6 -0.9,0.7 -1.9,1.7 -1.5,2.9 0.4,1.2 1.7,0.5 2.5,0.6 0.6,0 1.3,0 2,0 z"
       id="path4849"
       inkscape:connector-curvature="0"
       style="fill:#6e696b" /><path
       class="st25"
       d="m 866.4,704.3 c -5.8,0 -10.1,-4.1 -10.1,-9.8 0,-5.6 4.3,-9.8 10.1,-9.8 5.8,0 10.1,4.1 10.1,9.8 0,5.7 -4.2,9.8 -10.1,9.8 z m 6.3,-9.8 c 0,-3.8 -2.6,-6.7 -6.2,-6.7 -3.6,-0.1 -6.4,2.7 -6.6,6.4 -0.1,3.8 2.8,6.9 6.4,6.9 3.7,0.1 6.4,-2.8 6.4,-6.6 z"
       id="path4851"
       inkscape:connector-curvature="0"
       style="fill:#b7322b" /><path
       class="st24"
       d="m 773.3,687.6 c 0.9,-0.7 1.6,-1.4 2.4,-1.9 2.5,-1.6 5.1,-1.9 7.8,-0.6 2.4,1.2 2.9,3.5 2.9,5.9 0,3.5 0,7 0,10.5 0,1.4 -0.2,2.2 -1.9,2.1 -1.5,0 -1.7,-0.8 -1.7,-2 0,-3.1 0,-6.2 0,-9.3 0,-1.7 0,-3.5 -1.9,-4.2 -2,-0.8 -3.8,-0.2 -5.4,1.1 -1.5,1.3 -2.2,2.9 -2.2,4.9 0,2.4 0,4.9 0,7.3 0,1.3 0,2.2 -1.8,2.3 -1.9,0.1 -2,-0.9 -2,-2.4 0,-4.5 -0.1,-9 0.1,-13.4 0,-1.1 -1,-2.8 1.4,-3.1 2.2,-0.4 2,1.2 2.3,2.8 z"
       id="path4853"
       inkscape:connector-curvature="0"
       style="fill:#6e696b" /><path
       class="st25"
       d="m 838.9,688.3 c 2.1,-2.6 4.4,-3.9 7.3,-3.8 3.6,0.1 5.8,2 6,5.8 0.2,4 0,8 0.1,12 0,1.4 -0.8,1.5 -1.9,1.5 -1.2,0 -1.8,-0.2 -1.7,-1.6 0.1,-3.1 0.1,-6.2 0,-9.3 0,-1.9 0,-4.1 -2.4,-4.8 -2.6,-0.7 -4.8,0.3 -6.2,2.6 -1.1,1.7 -1.2,3.7 -1.2,5.6 0,1.8 -0.1,3.7 0,5.5 0.1,1.3 -0.3,2 -1.8,1.9 -1.4,0 -1.9,-0.5 -1.8,-1.9 0.1,-4.7 0,-9.3 0.1,-14 0,-1.1 -0.9,-2.8 1.4,-3.1 2.6,-0.1 2,1.8 2.1,3.6 z"
       id="path4855"
       inkscape:connector-curvature="0"
       style="fill:#b7322b" /><path
       class="st24"
       d="m 826,703.7 c -2.3,0.3 -4.7,0.2 -7,0 -3.7,-0.4 -5.7,-2.6 -5.9,-6.3 -0.1,-2.2 0,-4.5 0,-6.7 0,-1.2 0.3,-2.3 -1.6,-2.8 -1.4,-0.3 -1.2,-2.5 -0.1,-2.6 2.6,-0.4 1.7,-2.1 1.8,-3.5 0.1,-1.3 0,-2.2 1.8,-2.2 1.8,0 1.9,0.9 1.8,2.2 -0.3,2.3 0.2,3.8 3,3.3 1.1,-0.2 1.5,0.5 1.5,1.6 0,1.2 -0.7,1.6 -1.7,1.4 -2.6,-0.4 -3.2,0.9 -2.9,3.1 0.2,1.5 0,3.1 0,4.7 0.1,3.3 1.3,4.6 4.6,4.7 1.6,0.1 3.1,0 4.7,0 -0.1,1 -0.1,2 0,3.1 z"
       id="path4857"
       inkscape:connector-curvature="0"
       style="fill:#6e696b" /><path
       class="st26"
       d="m 826,703.7 c 0,-1.1 -0.1,-2.1 -0.1,-3.2 0,-4.5 0.1,-8.9 0.1,-13.4 0,-1.4 0.1,-2.3 2,-2.3 2,0 1.9,1.1 1.9,2.4 0,4.4 0,8.7 0,13.1 -0.1,3.9 -0.1,3.9 -3.9,3.4 z"
       id="path4859"
       inkscape:connector-curvature="0"
       style="fill:#bd443e" /><path
       class="st27"
       d="m 901.2,689 c -0.6,-0.2 -0.8,-0.7 -0.9,-1.3 -1,-6.1 -7.3,-10.2 -13.4,-9.1 -1.8,0.3 -3.4,1.8 -5.3,0.9 5.1,-3.8 14,-3.2 18.2,1.3 2.1,2.3 3.1,5 1.4,8.2 z"
       id="path4861"
       inkscape:connector-curvature="0"
       style="fill:#858082" /><path
       class="st26"
       d="m 829.8,679.5 c 0.3,1.7 -0.7,1.8 -2,1.9 -1.7,0.1 -1.8,-0.8 -1.8,-2.1 0,-1.5 0.7,-1.7 1.9,-1.8 1.4,0 2.2,0.5 1.9,2 z"
       id="path4863"
       inkscape:connector-curvature="0"
       style="fill:#bd443e" /><path
       class="st28"
       d="m 890.3,691.1 c -1.7,0 -3.5,0 -5.2,0 -0.5,0 -1,0 -1.1,-0.6 -0.1,-0.7 0.4,-0.8 0.9,-0.8 3.6,0 7.2,0 10.8,0 0.4,0 0.8,0.2 0.9,0.6 0.1,0.7 -0.5,0.8 -1,0.8 -1.8,0 -3.5,0 -5.3,0 l 0,0 z"
       id="path4865"
       inkscape:connector-curvature="0"
       style="fill:#fbf8f7" /><path
       class="st28"
       d="m 896.4,688 c -4.1,0 -8.3,0 -12.4,0 0,-0.2 0,-0.4 0,-0.6 4.1,0 8.3,0 12.4,0 0.1,0.2 0.1,0.4 0,0.6 z"
       id="path4867"
       inkscape:connector-curvature="0"
       style="fill:#fbf8f7" /><path
       class="st28"
       d="m 884,681.9 c 2.6,-0.8 5.3,-0.7 7.9,-0.1 -2.6,1 -5.3,0.8 -7.9,0.1 z"
       id="path4869"
       inkscape:connector-curvature="0"
       style="fill:#fbf8f7" /><path
       class="st28"
       d="m 891.9,685.1 c -2.7,0 -5.3,0 -8,0 0,-0.3 0,-0.5 0,-0.8 2.6,-0.5 5.3,-0.2 8,-0.1 0,0.3 0,0.6 0,0.9 z"
       id="path4871"
       inkscape:connector-curvature="0"
       style="fill:#fbf8f7" /><path
       class="st28"
       d="m 799.4,692 c -0.7,0 -1.4,0.1 -2,0 -0.9,-0.1 -2.2,0.6 -2.5,-0.6 -0.4,-1.2 0.6,-2.2 1.5,-2.9 2.2,-1.7 5.5,-1.4 7,0.6 0.5,0.7 1.1,1.5 0.7,2.4 -0.4,0.9 -1.3,0.5 -2.1,0.5 -0.9,0 -1.7,0 -2.6,0 z"
       id="path4873"
       inkscape:connector-curvature="0"
       style="fill:#fbf8f7" /><path
       class="st28"
       d="m 872.7,694.5 c 0,3.8 -2.8,6.6 -6.3,6.6 -3.6,0 -6.5,-3.1 -6.4,-6.9 0.1,-3.7 3,-6.5 6.6,-6.4 3.6,0.1 6.2,2.9 6.1,6.7 z"
       id="path4875"
       inkscape:connector-curvature="0"
       style="fill:#fbf8f7" /></g><circle
     class="st10"
     cx="277.57233"
     cy="540.53845"
     r="46.200001"
     id="circle4877"
     style="fill:none;stroke:#c1272d;stroke-width:7;stroke-miterlimit:10" /><circle
     class="st10"
     cx="532.57233"
     cy="694.83844"
     r="46.200001"
     id="circle4879"
     style="fill:none;stroke:#c1272d;stroke-width:7;stroke-miterlimit:10" /><circle
     class="st10"
     cx="439.77231"
     cy="444.53842"
     r="46.200001"
     id="circle4881"
     style="fill:none;stroke:#c1272d;stroke-width:7;stroke-miterlimit:10" /><circle
     class="st10"
     cx="600.57233"
     cy="540.53845"
     r="46.200001"
     id="circle4883"
     style="fill:none;stroke:#c1272d;stroke-width:7;stroke-miterlimit:10" /><g
     id="g4885"
     transform="translate(-110.22768,-121.26156)"><g
       id="g4887"><g
         id="g4889"><path
           class="st3"
           d="m 472,770 c 0,0 -0.1,-0.9 -0.2,-2.6 -0.1,-1.6 -0.3,-3.9 -0.4,-6.7 -0.2,-5.5 -0.1,-12.8 0.6,-20 0.2,-1.8 0.3,-3.6 0.6,-5.3 0.3,-1.7 0.5,-3.4 0.8,-5.1 0.2,-1.6 0.6,-3.2 0.9,-4.7 0.3,-1.5 0.5,-2.9 0.9,-4.1 0.7,-2.5 1.2,-4.6 1.6,-6.1 0.4,-1.4 0.7,-2.3 0.7,-2.3 0,0 -0.2,0.3 -0.5,0.9 -0.2,0.3 -0.4,0.6 -0.6,1 -0.2,0.4 -0.4,0.9 -0.7,1.4 -0.5,1 -1.1,2.2 -1.8,3.5 -0.6,1.3 -1.3,2.7 -1.9,4.1 -1.2,2.8 -2.5,5.8 -3.3,8 -0.8,2.3 -1.4,3.8 -1.4,3.8 0,0 -0.2,-2.3 -0.6,-6.3 -0.1,-2 -0.2,-4.5 -0.4,-7.3 0,-1.4 0,-2.9 0,-4.5 0,-1.6 0,-3.2 0.1,-5 0.1,-1.7 0.2,-3.5 0.3,-5.4 0.1,-1.9 0.4,-3.8 0.6,-5.8 0.1,-1 0.2,-2 0.3,-3 0.1,-1 0.3,-2 0.5,-3.1 0.4,-2.1 0.7,-4.2 1.1,-6.3 1.1,-4.2 1.9,-8.6 3.4,-13 0.3,-1.1 0.7,-2.2 1,-3.3 l 0.5,-1.7 0.6,-1.6 c 0.8,-2.2 1.7,-4.3 2.5,-6.5 7.1,-17.2 18.4,-32.5 28.2,-42.5 4.9,-5.1 9.3,-8.9 12.4,-11.5 1.6,-1.3 2.8,-2.3 3.7,-3 0.9,-0.7 1.3,-1 1.3,-1 0,0 -0.5,0.3 -1.4,1 -0.9,0.6 -2.2,1.6 -3.8,2.8 -3.3,2.5 -7.8,6.2 -12.9,11.2 -10.2,9.7 -22.1,24.8 -29.9,42 -0.9,2.2 -1.9,4.3 -2.8,6.5 l -0.7,1.6 -0.6,1.7 c -0.4,1.1 -0.8,2.2 -1.2,3.3 -1.7,4.4 -2.7,8.9 -3.9,13.1 -0.5,2.2 -0.9,4.3 -1.3,6.4 -0.2,1.1 -0.5,2.1 -0.6,3.1 -0.1,1 -0.3,2.1 -0.4,3.1 -0.3,2 -0.6,4 -0.8,5.9 -0.2,1.9 -0.3,3.8 -0.5,5.5 -0.2,1.8 -0.2,3.5 -0.3,5.1 0,1.6 -0.1,3.2 -0.1,4.6 0.1,2.9 0.1,5.4 0.1,7.5 0.3,4.2 0.4,6.5 0.4,6.5 0,0 -0.8,-1.4 -2,-3.6 -1.2,-2.2 -2.6,-5.2 -4.1,-8.2 -0.8,-1.5 -1.4,-3.1 -2,-4.6 -0.6,-1.5 -1.2,-2.9 -1.7,-4.1 -0.2,-0.6 -0.5,-1.2 -0.7,-1.7 -0.2,-0.5 -0.3,-0.9 -0.4,-1.3 -0.2,-0.7 -0.4,-1.1 -0.4,-1.1 0,0 0.1,1 0.4,2.7 0.3,1.7 0.8,4.2 1.4,7.1 0.3,1.5 0.7,3 1.1,4.7 0.4,1.7 0.8,3.4 1.4,5.2 0.5,1.8 1.1,3.6 1.7,5.4 0.6,1.8 1.3,3.7 1.9,5.5 2.6,7.3 5.8,14.2 8.5,19.3 1.3,2.5 2.5,4.6 3.3,6 1,2 1.5,2.8 1.5,2.8 z"
           id="path4891"
           inkscape:connector-curvature="0"
           style="fill:#688387" /></g></g></g><g
     id="g4893"
     transform="translate(-110.22768,-121.26156)"><g
       id="g4895"><g
         id="g4897"><path
           class="st3"
           d="m 537.5,613.9 c 0,0 0.1,0.9 0.3,2.6 0.1,1.6 0.3,4 0.5,6.7 0.3,5.6 0.2,12.9 -0.5,20.1 -0.7,7.2 -1.9,14.2 -3.2,19.2 -0.3,1.3 -0.6,2.4 -0.8,3.4 -0.3,1 -0.6,1.9 -0.8,2.6 -0.4,1.4 -0.7,2.3 -0.7,2.3 0,0 0.7,-1.3 1.8,-3.3 0.3,-0.5 0.6,-1.1 0.9,-1.6 0.3,-0.6 0.6,-1.2 0.9,-1.9 0.6,-1.3 1.3,-2.7 2,-4.1 1.3,-2.9 2.4,-5.8 3.3,-8 0.8,-2.3 1.3,-3.8 1.3,-3.8 0,0 0.1,0.6 0.2,1.7 0.1,0.5 0.1,1.2 0.2,2 0.1,0.8 0.1,1.7 0.2,2.7 0.1,2 0.4,4.5 0.4,7.3 0,1.4 0.1,2.9 0.1,4.5 0,1.6 -0.1,3.3 -0.1,5 0,0.9 -0.1,1.8 -0.1,2.7 -0.1,0.9 -0.2,1.8 -0.2,2.8 -0.2,1.9 -0.3,3.8 -0.5,5.8 -0.3,2 -0.6,4 -0.9,6.1 -0.1,0.5 -0.2,1 -0.2,1.6 -0.1,0.5 -0.2,1 -0.3,1.6 -0.2,1.1 -0.4,2.1 -0.7,3.2 -0.2,1.1 -0.5,2.2 -0.7,3.2 -0.2,1.1 -0.6,2.2 -0.9,3.2 -0.6,2.2 -1.2,4.4 -1.9,6.6 -1.6,4.3 -3,8.8 -5,13.1 -3.7,8.6 -8.4,16.8 -13.5,24 -5.1,7.2 -10.5,13.4 -15.5,18.5 -5,5 -9.5,8.9 -12.7,11.4 -1.6,1.3 -2.9,2.3 -3.8,2.9 -0.9,0.7 -1.4,1 -1.4,1 0,0 0.5,-0.3 1.4,-1 0.9,-0.6 2.2,-1.6 3.9,-2.8 3.3,-2.5 8,-6.1 13.2,-11 5.2,-4.9 10.9,-11 16.2,-18.1 5.4,-7.1 10.4,-15.3 14.5,-23.9 2.1,-4.3 3.8,-8.8 5.5,-13.1 0.8,-2.2 1.4,-4.5 2.1,-6.7 0.3,-1.1 0.7,-2.2 1,-3.3 0.3,-1.1 0.5,-2.2 0.8,-3.3 0.3,-1.1 0.5,-2.2 0.8,-3.2 0.1,-0.5 0.3,-1.1 0.4,-1.6 0.1,-0.5 0.2,-1.1 0.3,-1.6 0.4,-2.1 0.8,-4.2 1.1,-6.2 0.3,-2 0.5,-4 0.7,-6 0.1,-1 0.2,-1.9 0.3,-2.8 0.1,-0.9 0.1,-1.9 0.2,-2.7 0.1,-1.8 0.2,-3.5 0.3,-5.2 0,-1.6 0,-3.2 0.1,-4.7 0.1,-2.9 -0.1,-5.5 -0.2,-7.6 0,-1.1 -0.1,-2 -0.1,-2.8 -0.1,-0.8 -0.1,-1.5 -0.2,-2.1 -0.1,-1.1 -0.1,-1.7 -0.1,-1.7 0,0 0.8,1.5 2.1,3.6 1.1,2.2 2.7,5.2 4.1,8.3 0.7,1.6 1.4,3.1 2,4.6 0.3,0.8 0.6,1.5 0.9,2.2 0.3,0.7 0.5,1.4 0.7,2 0.9,2.5 1.5,4.1 1.5,4.1 0,0 -0.2,-1 -0.5,-2.8 -0.1,-0.9 -0.3,-1.9 -0.5,-3.2 -0.3,-1.2 -0.6,-2.6 -0.9,-4.1 -1.2,-5.9 -3.4,-13.6 -6.2,-21 -2.7,-7.4 -6,-14.3 -8.8,-19.3 -1.4,-2.5 -2.6,-4.6 -3.4,-6 -0.4,-1.3 -0.9,-2.1 -0.9,-2.1 z"
           id="path4899"
           inkscape:connector-curvature="0"
           style="fill:#688387" /></g></g></g><path
     class="st10"
     d="m 393.77232,695.63844 c 0,25.5 -20.7,46.2 -46.2,46.2 -25.5,0 -46.2,-20.7 -46.2,-46.2 0,-25.5 20.7,-46.2 46.2,-46.2 17.6,0 30,10.9 31.9,12.8 1.6,1.6 14.3,14.5 14.3,33.4 z"
     id="path4901"
     inkscape:connector-curvature="0"
     style="fill:none;stroke:#c1272d;stroke-width:7;stroke-miterlimit:10" /><g
     id="g4903"
     transform="translate(-110.22768,-121.26156)"><g
       id="g4905"><g
         id="g4907"><path
           class="st4"
           d="m 429.5,776.5 c 0,0 -0.6,-1.7 -1.2,-4.1 -0.7,-2.5 -1.4,-5.8 -1.9,-9 -0.5,-3.2 -0.7,-6.4 -0.8,-8.8 -0.1,-2.4 0,-3.9 0,-3.9 0,0 -1.2,3.2 -2.1,6.6 -0.9,3.4 -1.6,7 -1.6,7 0,0 -0.6,-0.7 -1.7,-2 -1,-1.3 -2.5,-3.2 -4.1,-5.6 -3.3,-4.7 -7,-11.5 -9.8,-18.7 -2.8,-7.2 -4.6,-14.8 -5.5,-20.6 -0.4,-2.9 -0.7,-5.3 -0.8,-7 -0.1,-1.7 -0.2,-2.7 -0.2,-2.7 0,0 0,1 0,2.7 0,1.7 0,4.2 0.2,7.1 0.4,5.9 1.5,13.8 3.8,21.4 2.2,7.6 5.5,15 8.5,20.2 1.5,2.6 2.8,4.7 3.8,6.2 1,1.5 1.6,2.3 1.6,2.3 0,0 -3.7,-0.3 -7.5,-1 -3.8,-0.6 -7.5,-1.6 -7.5,-1.6 0,0 1.6,1.1 4.1,2.5 2.5,1.4 5.8,3.2 9.2,4.6 3.4,1.5 6.7,2.7 9.3,3.5 2.5,0.5 4.2,0.9 4.2,0.9 z"
           id="path4909"
           inkscape:connector-curvature="0"
           style="fill:#ef7378" /></g></g></g><text
     transform="matrix(0.99999898,-0.00143,0.00143,0.99999898,0,0)"
     class="st6 st7"
     id="text4911"
     style="font-size:9.63529968px;font-family:GeosansLight"
     x="198.53224"
     y="634.09741">Lettre éditoriale </text>
<path
     class="st29"
     d="M 544.57232,469.93844"
     id="path4913"
     inkscape:connector-curvature="0"
     style="fill:none;stroke:#c24f54;stroke-miterlimit:10" /><path
     class="st29"
     d="m 545.27232,466.53844 -8.8,8.1 c 0,0 5,-9 7.8,-12.7 0.2,-0.3 1,-1.2 1,-1.2 0,-4.7 3.8,-8.5 8.5,-8.5 l 90.7,0 c 4.7,0 8.9,3.8 8.9,8.4 l 0,5.7 c 0,4.7 -4.2,8.9 -8.9,8.9 l -90.7,0 c -4.7,0 -8.5,-4 -8.5,-8.7 z"
     id="path4915"
     inkscape:connector-curvature="0"
     style="fill:none;stroke:#c24f54;stroke-miterlimit:10"
     sodipodi:nodetypes="ccccssssssc" /><path
     class="st30"
     d="m 336.47232,465.53844 8.8,8.1 c 0,0 -5,-9 -7.8,-12.7 -0.2,-0.3 -1,-1.2 -1,-1.2 0,-4.7 -3.8,-8.5 -8.5,-8.5 l -197.7,0 c -4.7,0 -9,3.8 -9,8.4 l 0,5.7 c 0,4.7 4.4,8.9 9,8.9 l 197.7,0 c 4.7,0 8.5,-4 8.5,-8.7 z"
     id="path4917"
     inkscape:connector-curvature="0"
     style="fill:none;stroke:#688387;stroke-miterlimit:10"
     sodipodi:nodetypes="ccccssssssc" /><path
     class="st29"
     d="m 281.27232,627.93844 11,-8.1 c 0,0 -6.2,9 -9.7,12.7 -0.3,0.3 -1.3,1.2 -1.3,1.2 0,4.7 -4.8,8.5 -10.6,8.5 l -66.6,0 c -5.8,0 -11.8,-3.8 -11.8,-8.4 l 0,-5.7 c 0,-4.7 5.9,-8.9 11.8,-8.9 l 66.6,0 c 5.8,0 10.6,4 10.6,8.7 z"
     id="path4919"
     inkscape:connector-curvature="0"
     style="fill:none;stroke:#c24f54;stroke-miterlimit:10"
     sodipodi:nodetypes="ccccssssssc" /><path
     class="st31"
     d="m 417.27232,586.73844 -46.3,0 c -7.1,0 -13,-8.6 -13,-16.6 l 0,0 c 0,-8 5.8,-16.6 13,-16.6 l 46.3,0 c 7.1,0 13,8.6 13,16.6 l 0,0 c 0,8 -5.9,16.6 -13,16.6 z"
     id="path4921"
     inkscape:connector-curvature="0"
     style="fill:none;stroke:#688387;stroke-width:1.05859995;stroke-miterlimit:10"
     sodipodi:nodetypes="ssccssccs" /><path
     class="st29"
     d="M 468.27232,628.73844"
     id="path4923"
     inkscape:connector-curvature="0"
     style="fill:none;stroke:#c24f54;stroke-miterlimit:10" /><path
     class="st29"
     d="M 468.27232,624.73844"
     id="path4925"
     inkscape:connector-curvature="0"
     style="fill:none;stroke:#c24f54;stroke-miterlimit:10" /><path
     class="st29"
     d="m 468.27232,628.83844 c 0,3.5 2.5,6.4 5.6,6.4 l 114,0 c 3.1,0 6.4,-2.8 6.4,-6.4 l 0,-4.3 c 0,-3.5 -3.3,-7.3 -6.4,-7.3 l -114,0 c -3,0 -5.4,3.5 -5.6,6.9 l 0,0.3 -4.8,-2.4 z"
     id="path4927"
     inkscape:connector-curvature="0"
     style="fill:none;stroke:#c24f54;stroke-miterlimit:10"
     sodipodi:nodetypes="csssssscccc" /><line
     class="st32"
     x1="380.77231"
     y1="375.23843"
     x2="498.77231"
     y2="375.23843"
     id="line4929"
     style="fill:none;stroke:#ed6167;stroke-miterlimit:10" /><line
     class="st32"
     x1="156.77232"
     y1="540.23846"
     x2="214.77232"
     y2="540.23846"
     id="line4931"
     style="fill:none;stroke:#ed6167;stroke-miterlimit:10" /><line
     class="st32"
     x1="201.77232"
     y1="698.23846"
     x2="285.77234"
     y2="698.23846"
     id="line4933"
     style="fill:none;stroke:#ed6167;stroke-miterlimit:10" /><line
     class="st32"
     x1="589.77234"
     y1="697.23846"
     x2="718.77234"
     y2="697.23846"
     id="line4935"
     style="fill:none;stroke:#ed6167;stroke-miterlimit:10" /><line
     class="st32"
     x1="658.77234"
     y1="540.23846"
     x2="748.77234"
     y2="540.23846"
     id="line4937"
     style="fill:none;stroke:#ed6167;stroke-miterlimit:10" /><g
     id="g4939"
     transform="translate(-110.22768,-121.26156)"><path
       d="m 258,842.1 c -0.2,0.6 -0.3,1.2 -0.7,2.3 1.2,-0.4 2.1,-0.6 3.1,-0.9 2.7,-1 3.5,-0.8 5.1,1.6 0.4,-0.2 0.9,-0.4 1.2,-0.7 1.6,-1.5 3.1,-1.4 4.6,0.2 0.7,0.8 1.4,0.8 2.3,0.2 0.6,-0.5 1.4,-0.9 2.1,-1.3 0.4,-0.2 0.9,-0.5 1.2,-0.3 1.1,0.5 2,1.3 3.2,1.6 0.9,0.3 2,0.1 3.1,0.1 0,0.2 0,0.5 -0.1,0.5 -2.4,1.1 -2.8,3.2 -2.7,5.6 0.1,3.4 0,6.9 0,10.3 0,2.2 0.1,2.3 2.1,1.8 0.1,0.1 0.2,0.3 0.3,0.4 -1.3,0.9 -2.6,1.8 -3.9,2.6 -2,-0.7 -2.7,-1.9 -2.6,-3.9 0.2,-3.3 -0.1,-6.6 0.1,-10 0.1,-1.6 0.7,-3.1 1.1,-4.7 0.2,0 0.4,0 0.6,0 -0.7,-0.4 -1.4,-0.9 -2.1,-1.3 -1.9,-1.1 -3.1,-0.5 -3.1,1.7 0,4.3 0,8.6 0,13 0,3.8 0,3.8 -4,5.2 0,-0.9 0,-1.8 0,-2.6 0,-4.8 0,-9.6 0,-14.5 0,-0.5 0.2,-1.1 -0.1,-1.5 -0.6,-0.8 -1.3,-1.8 -2,-1.9 -1,-0.1 -1.5,0.9 -1.4,2.1 0.1,2.5 0.1,5 0,7.5 0,3.2 -1.7,5.1 -5.3,5.9 1.9,-2.5 1.1,-5.2 1.2,-7.8 0.1,-0.9 0,-1.9 0,-2.8 0,-3.9 0,-3.9 -3.9,-3.9 -0.7,0 -1.6,-0.3 -1.9,-0.8 -0.3,-0.5 0,-1.4 0.3,-2.1 0.4,-0.7 1,-1.4 1.5,-2 0.3,0.2 0.5,0.3 0.7,0.4 z"
       id="path4941"
       inkscape:connector-curvature="0" /><path
       d="m 318.5,845.4 c 1.2,-0.7 2.4,-1.5 3.7,-2.1 0.4,-0.2 1,-0.1 1.3,0 2.1,1 3.3,2.6 3.3,5.2 -0.1,4.3 0,8.6 0,13.1 0.5,0.1 0.9,0.1 1.4,0.2 -0.1,0.3 0,0.5 -0.1,0.6 -2,1.2 -3.9,2.4 -6,3.5 -0.4,0.2 -1.1,0.1 -1.5,-0.1 -2.8,-1.2 -4.6,-3 -3.9,-6.4 0.3,-1.5 0,-3.1 0,-4.8 -0.5,0 -0.8,0 -1.4,0 0.3,-0.4 0.4,-0.8 0.6,-0.9 2,-1.2 4.1,-2.5 6.2,-3.6 1.2,-0.6 1.7,-1.4 1,-2.7 -0.7,-1.1 -1.4,-2.3 -3.1,-1.7 -0.4,0.1 -0.9,0.2 -1.3,0.3 -0.1,-0.2 -0.1,-0.4 -0.2,-0.6 z m 4.7,17.9 c 0,-4.1 0,-8.1 0,-12.2 -2.2,0.6 -3.2,1.7 -2.9,4 0.2,1.3 0.2,2.8 0,4.1 -0.3,2.3 0.8,3.4 2.9,4.1 z"
       id="path4943"
       inkscape:connector-curvature="0" /><path
       d="m 314.2,864 c -1.1,0.7 -2.2,1.5 -3.4,2 -1,0.4 -2.5,-1.2 -2.5,-2.6 -0.1,-2.8 0,-5.5 -0.1,-8.3 0,-0.6 -0.2,-1.4 -0.6,-1.9 -0.4,-0.5 -1.2,-0.6 -1.9,-0.9 -0.3,0.6 -0.8,1.2 -0.8,1.9 -0.1,2.4 0,4.9 0,7.3 0,3.4 0,3.4 -3.6,4.7 0,-0.9 0,-1.8 0,-2.6 0,-2.8 0,-5.5 0,-8.3 0,-3 0,-3 -2.9,-3.3 1.3,-0.8 2.7,-1.6 4.3,-2.6 0.6,0.8 1.1,1.6 1.6,2.4 0.9,-0.4 1.4,-0.7 2,-1 3,-1.7 5.4,-0.2 5.4,3.3 0,2.4 0,4.9 0,7.3 0,2.4 0.1,2.4 2.5,2.6 z"
       id="path4945"
       inkscape:connector-curvature="0" /><path
       d="m 285.7,854.2 c -0.6,0 -1,0 -1.4,0 0.1,-0.3 0,-0.6 0.1,-0.6 2.1,-1.3 4.1,-2.6 6.3,-3.8 0.3,-0.2 0.9,0 1.4,0.2 3,1.2 4.8,3.1 4.1,6.7 -0.3,1.6 -0.1,3.2 -0.1,4.9 0.5,0.1 0.9,0.1 1.3,0.2 0.1,0.1 0.1,0.3 0.2,0.4 -2.2,1.3 -4.4,2.7 -6.7,3.8 -0.5,0.2 -1.5,-0.6 -2.3,-0.9 -2.3,-0.8 -3.2,-2.4 -2.9,-4.9 0.2,-2 0,-3.9 0,-6 z m 6.9,9.1 c 0,-2.4 0,-4.6 0,-6.7 0,-2.8 -0.3,-3.2 -3.3,-4.1 0,2.2 0,4.4 0,6.6 -0.1,2.9 0.1,3 3.3,4.2 z"
       id="path4947"
       inkscape:connector-curvature="0" /><path
       d="m 240.3,854.2 c -0.5,0 -1,-0.1 -1.4,-0.1 -0.1,-0.2 -0.1,-0.3 -0.2,-0.5 2.3,-1.4 4.6,-2.7 7.1,-4.2 1.5,1.6 2.9,3.2 4.4,4.9 -1.8,1.1 -3.5,2.2 -5.1,3.2 -1.1,0.7 -1.7,3.1 -1.1,4.3 0.7,1.2 2.6,1.7 4,1.1 0.5,-0.2 1,-0.2 1.5,-0.3 0.1,0.2 0.1,0.4 0.2,0.6 -1.6,0.9 -3.1,2 -4.8,2.7 -0.5,0.2 -1.4,-0.5 -2.1,-0.8 -2.1,-0.8 -2.8,-2.4 -2.5,-4.6 0.2,-2 0,-4.2 0,-6.3 z m 6.3,0.9 c -0.9,-1.1 -1.7,-1.9 -2.7,-3.1 0,1.8 0,3.1 0,4.8 1,-0.7 1.8,-1.1 2.7,-1.7 z"
       id="path4949"
       inkscape:connector-curvature="0" /><path
       d="m 331.3,854.1 c -0.6,0.1 -1,0.1 -1.6,0.1 0.2,-0.4 0.3,-0.8 0.5,-0.9 1.9,-1.2 3.8,-2.3 5.8,-3.4 0.3,-0.2 1.1,0 1.4,0.3 1.3,1.3 2.4,2.6 3.8,4.2 -1.8,1.1 -3.5,2.1 -5.1,3.2 -1.2,0.8 -1.9,3 -1.2,4.2 0.7,1.3 2.8,1.9 4.1,1.2 0.4,-0.2 0.8,-0.3 1.7,-0.8 -0.4,0.8 -0.4,1.3 -0.7,1.5 -1.3,0.8 -2.6,1.5 -3.9,2.3 -0.3,0.1 -0.6,0.3 -0.9,0.2 -1.9,-0.3 -3.9,-2.8 -3.9,-4.7 0,-2.5 0,-4.8 0,-7.4 z m 3.5,-2.2 c 0,1.9 0,3.2 0,4.8 1,-0.6 1.8,-1.1 2.7,-1.7 -0.9,-1 -1.6,-1.9 -2.7,-3.1 z"
       id="path4951"
       inkscape:connector-curvature="0" /><path
       d="m 242,845.7 c -1.5,0.9 -2.9,1.8 -4.6,2.8 0.1,-0.6 0,-0.8 0.1,-1 0.3,-0.7 1,-1.6 0.7,-1.9 -0.5,-0.7 -1.5,-1.5 -2.2,-1.4 -0.8,0.1 -2,0.9 -2.2,1.6 -0.4,1.5 -0.3,3.2 -0.2,4.8 0.1,1.4 0.4,2.7 0.6,4.1 0.5,3.5 -0.5,5.1 -4.2,6.7 1.2,-3.6 -0.1,-7 -0.6,-10.4 -0.4,-3.3 1.3,-6.2 4.5,-7.4 3.1,-1.3 6.2,-0.5 8.1,2.1 z"
       id="path4953"
       inkscape:connector-curvature="0" /><path
       d="m 224.2,866.1 c 1.7,-2.3 4,-3.7 6.7,-4.4 2.9,-0.8 5.1,0.6 7.8,2.1 -1.2,0.8 -2.4,1.6 -3.6,2.4 -3.7,-3.7 -7.2,-1.4 -10.9,-0.1 z"
       id="path4955"
       inkscape:connector-curvature="0" /><path
       d="m 266.5,863.4 c -1.5,0.9 -3,1.8 -4.5,2.8 -3,-3.6 -6,-1.3 -9.1,0 -0.1,-0.2 -0.2,-0.4 -0.3,-0.6 1.3,-0.9 2.6,-2 4,-2.7 2.4,-1.3 4.9,-1.7 7.4,-0.1 0.5,0.3 1.3,0 2,0 0.1,0.2 0.3,0.4 0.5,0.6 z"
       id="path4957"
       inkscape:connector-curvature="0" /><path
       d="m 267.1,846.1 c 0.5,0.8 1.2,1.4 1.2,2.1 0.1,6.1 0.1,12.2 -0.3,18.4 -0.1,-0.4 -0.1,-0.8 -0.1,-1.2 0,-5 0,-10 0,-15 -0.2,-1.3 -0.6,-2.6 -0.8,-4.3 z"
       id="path4959"
       inkscape:connector-curvature="0" /><path
       d="m 309.7,866.6 c -2.1,-0.4 -2.7,-1.2 -2.8,-3.3 0,-2.4 0.1,-4.8 0,-7.1 0,-1 -0.4,-2 -0.6,-3 0.8,0.2 1.3,0.8 1.3,1.9 0,2.2 0,4.4 0,6.6 -0.1,1.9 0,3.8 2.1,4.9 z"
       id="path4961"
       inkscape:connector-curvature="0" /><path
       d="m 300.6,866.9 c -0.2,-0.2 -0.4,-0.3 -0.4,-0.4 0,-4.4 0,-8.9 0,-13.3 0.7,0.8 1,10 0.4,13.7 z"
       id="path4963"
       inkscape:connector-curvature="0" /><path
       d="m 334.5,866.5 c -3.8,-1.1 -4.5,-2.1 -4.5,-5.6 0,-1.8 0,-3.7 0,-5.5 0.2,0 0.4,0 0.5,0 0,1.9 0.1,3.8 0,5.7 -0.2,2 0.5,3.3 2.3,4.2 0.6,0.4 1.1,0.8 1.7,1.2 z"
       id="path4965"
       inkscape:connector-curvature="0" /><path
       d="m 316.1,855.7 c 0,1.6 0.1,3.3 0,4.9 -0.3,2.4 0.5,4 2.7,4.9 0.6,0.2 1.1,0.7 1.5,1.2 -4,-1.3 -4.8,-2.3 -4.8,-6.2 0,-1.6 0,-3.2 0,-4.7 0.2,-0.1 0.4,-0.1 0.6,-0.1 z"
       id="path4967"
       inkscape:connector-curvature="0" /><path
       d="m 229.4,859.7 c 0.2,-3.8 -1.8,-7.4 -0.8,-11.8 0.5,4.3 0.9,8 1.4,11.7 -0.1,0 -0.4,0.1 -0.6,0.1 z"
       id="path4969"
       inkscape:connector-curvature="0" /><path
       d="m 275.7,849.9 c 0,3.9 0,7.3 0,10.7 0,3.7 0,3.7 2.2,6.3 -1.5,-0.6 -2.6,-1.3 -2.6,-2.8 0,-4.3 0,-8.6 0.1,-12.9 -0.1,-0.3 0.1,-0.6 0.3,-1.3 z"
       id="path4971"
       inkscape:connector-curvature="0" /><path
       d="m 285.1,855.3 c 0,1.9 0.1,3.9 0,5.8 -0.1,1.8 0.4,3.1 2.2,3.9 0.9,0.4 1.6,1 2.5,1.5 -0.1,0.1 -0.2,0.3 -0.2,0.4 -1.3,-0.8 -2.7,-1.6 -4,-2.5 -0.4,-0.3 -0.8,-0.9 -0.8,-1.4 -0.1,-2.6 0,-5.2 0,-7.8 -0.1,0.1 0.1,0.1 0.3,0.1 z"
       id="path4973"
       inkscape:connector-curvature="0" /><path
       d="m 243.6,866.5 c -3,-0.9 -5.1,-2.5 -4.5,-6.1 0.3,-1.7 0,-3.4 0,-5.2 0.2,0 0.4,0 0.6,0 0,1.8 0.2,3.6 0,5.3 -0.3,2.4 0.5,4.1 2.8,5.1 0.4,0.3 0.7,0.6 1.1,0.9 z"
       id="path4975"
       inkscape:connector-curvature="0" /><path
       d="m 260.1,858.8 c 0,-3.8 0,-7.7 0,-11.5 0.1,0 0.1,0 0.2,0 0,3.9 0,7.8 0,11.7 0,-0.1 -0.1,-0.1 -0.2,-0.2 z"
       id="path4977"
       inkscape:connector-curvature="0" /><path
       class="st33"
       d="m 323.2,863.3 c -2.1,-0.7 -3.2,-1.8 -2.9,-4.1 0.2,-1.4 0.2,-2.8 0,-4.1 -0.3,-2.2 0.8,-3.3 2.9,-4 0,4.1 0,8.1 0,12.2 z m -0.9,-1.3 c 0.1,0 0.2,0 0.3,0.1 0,-3.2 0,-6.5 0,-9.7 -0.1,0 -0.2,0 -0.3,0 0,3.1 0,6.4 0,9.6 z"
       id="path4979"
       inkscape:connector-curvature="0"
       style="fill:#ffffff" /><path
       class="st33"
       d="m 292.6,863.3 c -3.2,-1.2 -3.3,-1.3 -3.3,-4.3 0,-2.2 0,-4.3 0,-6.6 3.1,0.9 3.3,1.3 3.3,4.1 0,2.3 0,4.4 0,6.8 z m -2.7,-9.8 c 2.9,2.5 0.7,5.8 1.9,8.5 0.2,-2.1 0.1,-4.2 0.2,-6.3 0,-1.3 -0.6,-1.8 -2.1,-2.2 z"
       id="path4981"
       inkscape:connector-curvature="0"
       style="fill:#ffffff" /><path
       class="st33"
       d="m 246.6,855.1 c -0.9,0.6 -1.7,1.1 -2.7,1.7 0,-1.7 0,-3 0,-4.8 1.1,1.1 1.8,2 2.7,3.1 z"
       id="path4983"
       inkscape:connector-curvature="0"
       style="fill:#ffffff" /><path
       class="st33"
       d="m 334.8,851.9 c 1.1,1.2 1.8,2.1 2.7,3.1 -0.9,0.6 -1.7,1.1 -2.7,1.7 0,-1.5 0,-2.9 0,-4.8 z"
       id="path4985"
       inkscape:connector-curvature="0"
       style="fill:#ffffff" /><path
       d="m 322.3,862 c 0,-3.2 0,-6.4 0,-9.6 0.1,0 0.2,0 0.3,0 0,3.2 0,6.5 0,9.7 -0.1,-0.1 -0.2,-0.1 -0.3,-0.1 z"
       id="path4987"
       inkscape:connector-curvature="0" /><path
       d="m 289.9,853.5 c 1.4,0.3 2.1,0.9 2.1,2.3 -0.1,2.1 0,4.2 -0.2,6.3 -1.1,-2.7 1.1,-6.1 -1.9,-8.6 z"
       id="path4989"
       inkscape:connector-curvature="0" /></g><path
     class="st34"
     d="m 493.77232,728.23844 c 1.9,0 3.5,2.6 3.5,6.1 l 0,4.3 c 0,3.5 -2,7.6 -4.3,7.6 l -104.4,0 c -2.3,0 -4.3,-4 -4.3,-7.5 l 0,-4.4 c 0,-3.5 2.1,-6.1 3.7,-6.1 l 48.8,0 0.6,0 13.2,-11.7 -3.7,11.7 1,0 45.9,0"
     id="path4991"
     inkscape:connector-curvature="0"
     style="fill:#f2f2f2;stroke:#c24f54;stroke-miterlimit:10"
     sodipodi:nodetypes="cssssssscccccc" /><text
     class="st6 st7"
     id="text4993"
     style="font-size:9.63529968px;font-family:GeosansLight"
     x="387.27191"
     y="740.23853">Force une modération</text>
</svg>